<?xml version="1.0" encoding="UTF-8" standalone="no"?>
<!-- Created with Inkscape (http://www.inkscape.org/) -->

<svg
   xmlns:dc="http://purl.org/dc/elements/1.1/"
   xmlns:cc="http://creativecommons.org/ns#"
   xmlns:rdf="http://www.w3.org/1999/02/22-rdf-syntax-ns#"
   xmlns:svg="http://www.w3.org/2000/svg"
   xmlns="http://www.w3.org/2000/svg"
   xmlns:xlink="http://www.w3.org/1999/xlink"
   xmlns:sodipodi="http://sodipodi.sourceforge.net/DTD/sodipodi-0.dtd"
   xmlns:inkscape="http://www.inkscape.org/namespaces/inkscape"
   width="154.35085mm"
   height="44.16143mm"
   viewBox="0 0 546.91244 156.47751"
   id="svg21764"
   version="1.1"
   inkscape:version="0.91 r13725"
   sodipodi:docname="all_logos.svg">
  <defs
     id="defs21766">
    <clipPath
       id="SVGID_2_">
      <use
         height="100%"
         width="100%"
         y="0"
         x="0"
         style="overflow:visible"
         xlink:href="#SVGID_1_"
         overflow="visible"
         id="use5055" />
    </clipPath>
  </defs>
  <sodipodi:namedview
     id="base"
     pagecolor="#ffffff"
     bordercolor="#666666"
     borderopacity="1.0"
     inkscape:pageopacity="0.0"
     inkscape:pageshadow="2"
     inkscape:zoom="1.979899"
     inkscape:cx="443.32044"
     inkscape:cy="-5.4572333"
     inkscape:document-units="px"
     inkscape:current-layer="layer1"
     showgrid="false"
     fit-margin-top="5"
     fit-margin-left="5"
     fit-margin-right="5"
     fit-margin-bottom="5"
     inkscape:window-width="3360"
     inkscape:window-height="1956"
     inkscape:window-x="0"
     inkscape:window-y="64"
     inkscape:window-maximized="1" />
  <metadata
     id="metadata21769">
    <rdf:RDF>
      <cc:Work
         rdf:about="">
        <dc:format>image/svg+xml</dc:format>
        <dc:type
           rdf:resource="http://purl.org/dc/dcmitype/StillImage" />
        <dc:title></dc:title>
      </cc:Work>
    </rdf:RDF>
  </metadata>
  <g
     inkscape:label="Layer 1"
     inkscape:groupmode="layer"
     id="layer1"
     transform="translate(-74.905063,-53.587932)">
    <g
       transform="matrix(1.25,0,0,-1.25,83.991236,222.23855)"
       id="g4332">
      <g
         transform="translate(-13.637708,25.221982)"
         id="g4323">
        <path
           inkscape:connector-curvature="0"
           id="path22"
           style="fill:#bed13d;fill-opacity:1;fill-rule:nonzero;stroke:none"
           d="m 32.255691,60.936163 c 0,3.426 2.778,6.205 6.204,6.205 3.427,0 6.204,-2.779 6.204,-6.205 0,-3.429 -2.777,-6.206 -6.204,-6.206 -3.426,0 -6.204,2.777 -6.204,6.206" />
        <path
           inkscape:connector-curvature="0"
           id="path26"
           style="fill:#bcbec0;fill-opacity:1;fill-rule:nonzero;stroke:none"
           d="m 95.083891,60.936163 c 0,3.426 2.778,6.205 6.202999,6.205 3.428,0 6.204,-2.779 6.204,-6.205 0,-3.429 -2.776,-6.206 -6.204,-6.206 -3.424999,0 -6.202999,2.777 -6.202999,6.206" />
        <path
           inkscape:connector-curvature="0"
           id="path30"
           style="fill:#d1d3d4;fill-opacity:1;fill-rule:nonzero;stroke:none"
           d="m 50.247891,93.032363 c 2.922,1.786 6.741,0.864 8.53,-2.058 1.786,-2.923 0.865,-6.741 -2.057,-8.53 -2.924,-1.788 -6.742,-0.866 -8.531,2.058 -1.786,2.922 -0.866,6.742 2.058,8.53" />
        <path
           inkscape:connector-curvature="0"
           id="path34"
           style="fill:#939598;fill-opacity:1;fill-rule:nonzero;stroke:none"
           d="m 83.024291,39.429263 c 2.922,1.788 6.742,0.865 8.53,-2.057 1.786,-2.922 0.866,-6.742 -2.057,-8.53 -2.924,-1.788 -6.742,-0.865 -8.53,2.058 -1.786,2.922 -0.867,6.741 2.057,8.529" />
        <path
           inkscape:connector-curvature="0"
           id="path38"
           style="fill:#6d6f71;fill-opacity:1;fill-rule:nonzero;stroke:none"
           d="m 88.265491,93.753063 c 2.987,-1.673 4.052,-5.457 2.379,-8.444 -1.676,-2.99 -5.457,-4.054 -8.446,-2.379 -2.99,1.676 -4.055,5.456 -2.377,8.447 1.673,2.987 5.455,4.052 8.444,2.376" />
        <path
           inkscape:connector-curvature="0"
           id="path42"
           style="fill:#a7a9ac;fill-opacity:1;fill-rule:nonzero;stroke:none"
           d="m 57.547691,38.945863 c 2.987,-1.675 4.054,-5.455 2.379,-8.446 -1.676,-2.988 -5.457,-4.052 -8.445,-2.377 -2.99,1.676 -4.054,5.455 -2.379,8.446 1.674,2.988 5.456,4.053 8.445,2.377" />
        <path
           inkscape:connector-curvature="0"
           id="path46"
           style="fill:#21bde4;fill-opacity:1;fill-rule:nonzero;stroke:none"
           d="m 51.979391,71.078163 17.729,10.424 17.892,-10.141 0.167,-20.567 -17.732,-10.427 -17.892,10.143 -0.164,20.568 z" />
      </g>
      <g
         transform="matrix(0.59314056,0,0,0.59314056,-68.195959,-3.9539133)"
         id="g4314">
        <path
           inkscape:connector-curvature="0"
           id="path50"
           style="fill:#bed13d;fill-opacity:1;fill-rule:nonzero;stroke:none"
           d="m 147.67759,47.636363 -5.334,0 0,15.417 c 0,1.912 -0.361,3.34 -1.085,4.282 -0.723,0.941 -1.853,1.414 -3.391,1.414 -2.047,0 -3.55,-0.667 -4.508,-2.001 -0.956,-1.334 -1.436,-3.553 -1.436,-6.657 l 0,-12.455 -5.309,0 0,25 4.158,0 0.744,-3.277 0.273,0 c 0.692,1.189 1.699,2.108 3.016,2.757 1.319,0.648 2.769,0.972 4.351,0.972 3.843,0 6.389,-1.312 7.639,-3.933 l 0.361,0 c 0.741,1.236 1.78,2.199 3.121,2.894 1.341,0.692 2.877,1.039 4.61,1.039 2.984,0 5.157,-0.754 6.52,-2.261 1.365,-1.506 2.046,-3.805 2.046,-6.895 l 0,-16.296 -5.311,0 0,15.417 c 0,1.912 -0.365,3.34 -1.096,4.282 -0.73,0.941 -1.864,1.414 -3.401,1.414 -2.065,0 -3.575,-0.644 -4.532,-1.934 -0.957,-1.287 -1.436,-3.266 -1.436,-5.932 l 0,-13.247 z" />
        <path
           d="m 173.86309,47.636763 -5.31,0 0,25 5.31,0 0,-25 z m -5.628,31.622 c 0,0.949 0.26,1.68 0.779,2.192 0.522,0.512 1.264,0.767 2.229,0.767 0.934,0 1.66,-0.255 2.18,-0.767 0.52,-0.512 0.78,-1.243 0.78,-2.192 0,-0.904 -0.26,-1.617 -0.78,-2.137 -0.52,-0.519 -1.246,-0.779 -2.18,-0.779 -0.965,0 -1.707,0.26 -2.229,0.779 -0.519,0.52 -0.779,1.233 -0.779,2.137"
           style="fill:#bed13d;fill-opacity:1;fill-rule:nonzero;stroke:none"
           id="path52"
           inkscape:connector-curvature="0" />
        <path
           inkscape:connector-curvature="0"
           id="path56"
           style="fill:#bed13d;fill-opacity:1;fill-rule:nonzero;stroke:none"
           d="m 188.99839,51.481063 c 2.187,0 3.773,0.61 4.771,1.839 0.994,1.228 1.505,3.224 1.535,5.978 l 0,0.749 c 0,3.148 -0.512,5.387 -1.535,6.712 -1.026,1.326 -2.629,1.99 -4.817,1.99 -1.867,0 -3.308,-0.758 -4.314,-2.271 -1.011,-1.516 -1.515,-3.676 -1.515,-6.477 0,-2.774 0.488,-4.885 1.469,-6.339 0.978,-1.454 2.447,-2.181 4.406,-2.181 m -1.424,-4.296 c -3.119,0 -5.553,1.131 -7.301,3.391 -1.748,2.26 -2.621,5.43 -2.621,9.515 0,4.1 0.886,7.291 2.657,9.573 1.769,2.283 4.222,3.424 7.358,3.424 3.282,0 5.784,-1.214 7.503,-3.638 l 0.269,0 c -0.254,1.792 -0.381,3.209 -0.381,4.248 l 0,9.109 5.333,0 0,-35.171 -4.161,0 -0.926,3.279 -0.246,0 c -1.705,-2.487 -4.2,-3.73 -7.484,-3.73" />
        <path
           inkscape:connector-curvature="0"
           id="path60"
           style="fill:#bed13d;fill-opacity:1;fill-rule:nonzero;stroke:none"
           d="m 209.64689,60.182263 c 0,-5.771 2.133,-8.657 6.396,-8.657 4.218,0 6.329,2.886 6.329,8.657 0,5.709 -2.124,8.567 -6.373,8.567 -2.233,0 -3.847,-0.738 -4.848,-2.216 -1.004,-1.477 -1.504,-3.593 -1.504,-6.351 m 18.193,0 c 0,-4.085 -1.047,-7.271 -3.14,-9.563 -2.096,-2.29 -5.011,-3.434 -8.746,-3.434 -2.337,0 -4.403,0.527 -6.195,1.581 -1.793,1.054 -3.173,2.569 -4.134,4.543 -0.965,1.974 -1.448,4.268 -1.448,6.873 0,4.052 1.039,7.218 3.118,9.493 2.081,2.275 5.01,3.413 8.792,3.413 3.618,0 6.481,-1.165 8.59,-3.492 2.109,-2.329 3.163,-5.467 3.163,-9.414" />
        <path
           inkscape:connector-curvature="0"
           id="path64"
           style="fill:#939598;fill-opacity:1;fill-rule:nonzero;stroke:none"
           d="m 248.76009,47.636363 0,16.027 c 0,2.017 -0.46,3.526 -1.377,4.52 -0.92,0.995 -2.358,1.492 -4.317,1.492 -2.591,0 -4.492,-0.702 -5.697,-2.102 -1.206,-1.401 -1.806,-3.715 -1.806,-6.941 l 0,-12.996 -3.753,0 0,24.772 3.052,0 0.61,-3.389 0.18,0 c 0.767,1.219 1.845,2.166 3.231,2.837 1.388,0.67 2.933,1.006 4.636,1.006 2.98,0 5.226,-0.719 6.733,-2.158 1.506,-1.44 2.261,-3.742 2.261,-6.906 l 0,-16.162 -3.753,0 z" />
        <path
           inkscape:connector-curvature="0"
           id="path68"
           style="fill:#939598;fill-opacity:1;fill-rule:nonzero;stroke:none"
           d="m 267.35189,69.718863 c -1.989,0 -3.573,-0.646 -4.758,-1.942 -1.181,-1.296 -1.881,-3.089 -2.092,-5.38 l 12.953,0 c 0,2.365 -0.528,4.178 -1.582,5.436 -1.055,1.257 -2.562,1.886 -4.521,1.886 m 1.019,-22.534 c -3.664,0 -6.551,1.117 -8.668,3.344 -2.119,2.232 -3.177,5.328 -3.177,9.291 0,3.993 0.982,7.166 2.948,9.516 1.969,2.35 4.608,3.527 7.924,3.527 3.103,0 5.558,-1.021 7.368,-3.064 1.81,-2.042 2.711,-4.735 2.711,-8.08 l 0,-2.373 -17.063,0 c 0.076,-2.908 0.808,-5.117 2.204,-6.622 1.392,-1.508 3.355,-2.26 5.886,-2.26 2.667,0 5.304,0.555 7.911,1.672 l 0,-3.344 c -1.326,-0.574 -2.582,-0.985 -3.761,-1.233 -1.185,-0.25 -2.613,-0.374 -4.283,-0.374" />
        <path
           inkscape:connector-curvature="0"
           id="path72"
           style="fill:#939598;fill-opacity:1;fill-rule:nonzero;stroke:none"
           d="m 289.56289,50.281863 c 0.662,0 1.303,0.047 1.921,0.146 0.616,0.097 1.107,0.2 1.47,0.304 l 0,-2.867 c -0.409,-0.196 -1.007,-0.359 -1.797,-0.487 -0.793,-0.127 -1.503,-0.193 -2.139,-0.193 -4.789,0 -7.185,2.523 -7.185,7.571 l 0,14.737 -3.548,0 0,1.809 3.548,1.561 1.583,5.288 2.168,0 0,-5.743 7.188,0 0,-2.915 -7.188,0 0,-14.577 c 0,-1.494 0.355,-2.639 1.061,-3.435 0.71,-0.8 1.682,-1.199 2.918,-1.199" />
      </g>
    </g>
    <g
       transform="matrix(0.28880086,0,0,0.28880086,204.41351,-14.554629)"
       inkscape:label="Layer 1"
       id="layer1-8-6">
      <g
         id="g7616-4-7"
         transform="translate(-122,44.000001)">
        <g
           style="fill:#c798e2;fill-opacity:1"
           transform="matrix(1.1475092,0,0,1.1475092,87.661383,133.31054)"
           id="g6888-8-0">
          <g
             style="fill:#c798e2;fill-opacity:1"
             id="g6890-2-5"
             enable-background="new    ">
            <g
               style="fill:#c798e2;fill-opacity:1"
               id="g6892-8-8">
              <polygon
                 id="polygon6894-8-7"
                 points="351.604,106.679 521.525,165.729 352.659,224.801 182.733,165.755 "
                 stroke-miterlimit="10"
                 style="fill:#c798e2;fill-opacity:1;stroke:#ffffff;stroke-width:4;stroke-miterlimit:10" />
            </g>
            <g
               style="fill:#c798e2;fill-opacity:1"
               id="g6896-6-9">
              <polygon
                 id="polygon6898-9-6"
                 points="352.659,224.801 521.525,165.729 520.626,405.996 351.754,465.079 "
                 stroke-miterlimit="10"
                 style="fill:#c798e2;fill-opacity:1;stroke:#ffffff;stroke-width:4;stroke-miterlimit:10" />
            </g>
            <g
               style="fill:#c798e2;fill-opacity:1"
               id="g6900-5-5">
              <polygon
                 id="polygon6902-5-2"
                 points="182.733,165.755 352.659,224.801 351.754,465.079 181.833,406.029 "
                 stroke-miterlimit="10"
                 style="fill:#c798e2;fill-opacity:1;stroke:#ffffff;stroke-width:4;stroke-miterlimit:10" />
            </g>
          </g>
        </g>
        <g
           transform="matrix(5.3278657,0,0,5.3278657,-880.16742,-1005.5465)"
           id="g7569-2-9">
          <g
             id="g7554-67-4">
            <ellipse
               ry="4.8945951"
               rx="5.0033641"
               cy="280.32138"
               cx="305.06479"
               id="path7550-6-3"
               style="opacity:1;fill:#c798e2;fill-opacity:1;stroke:none;stroke-width:1;stroke-miterlimit:4;stroke-dasharray:none;stroke-opacity:1" />
            <path
               sodipodi:nodetypes="ccccc"
               inkscape:connector-curvature="0"
               id="path7552-5-3"
               d="m 300.375,281.73718 -9.0625,0 0,-3.3125 9.125,0 z"
               style="fill:#c798e2;fill-opacity:1;fill-rule:evenodd;stroke:none;stroke-width:1px;stroke-linecap:butt;stroke-linejoin:miter;stroke-opacity:1" />
          </g>
        </g>
        <g
           id="g7554-6-7-4"
           transform="matrix(-5.3278657,0,0,5.3278657,1855.3736,-1003.9971)">
          <ellipse
             style="opacity:1;fill:#c798e2;fill-opacity:1;stroke:none;stroke-width:1;stroke-miterlimit:4;stroke-dasharray:none;stroke-opacity:1"
             id="path7550-5-7-7"
             cx="305.06479"
             cy="280.32138"
             rx="5.0033641"
             ry="4.8945951" />
          <path
             style="fill:#c798e2;fill-opacity:1;fill-rule:evenodd;stroke:none;stroke-width:1px;stroke-linecap:butt;stroke-linejoin:miter;stroke-opacity:1"
             d="m 300.375,281.73718 -9.0625,0 0,-3.3125 9.125,0 z"
             id="path7552-2-8-0"
             inkscape:connector-curvature="0"
             sodipodi:nodetypes="ccccc" />
        </g>
      </g>
    </g>
    <g
       transform="matrix(0.73079533,0,0,0.73079533,394.31373,74.297692)"
       id="g5049">
      <defs
         id="defs5051">
        <rect
           id="SVGID_1_"
           x="-56.164001"
           y="-56.234001"
           width="800"
           height="275" />
      </defs>
      <clipPath
         id="clipPath5192">
        <use
           height="100%"
           width="100%"
           y="0"
           x="0"
           style="overflow:visible"
           xlink:href="#SVGID_1_"
           overflow="visible"
           id="use5194" />
      </clipPath>
      <path
         style="clip-rule:evenodd;fill:#394d54;fill-rule:evenodd"
         inkscape:connector-curvature="0"
         clip-path="url(#SVGID_2_)"
         d="m 166.65,51.535 25.594,0 0,25.951 12.948,0 c 5.976,0 12.121,-1.056 17.783,-2.96 2.781,-0.933 5.899,-2.234 8.646,-3.87 -3.614,-4.68 -5.458,-10.588 -6.002,-16.41 -0.735,-7.92 0.871,-18.232 6.279,-24.43 l 2.69,-3.087 3.206,2.558 c 8.074,6.434 14.861,15.418 16.057,25.664 9.723,-2.834 21.132,-2.164 29.704,2.739 l 3.512,2.01 -1.851,3.582 c -7.245,14.023 -22.392,18.371 -37.204,17.6 -22.161,54.74 -70.408,80.656 -128.908,80.656 -30.225,0 -57.954,-11.205 -73.743,-37.792 l -0.26,-0.439 -2.299,-4.64 C 37.465,106.96 35.691,94.135 36.895,81.323 l 0.359,-3.837 21.89,0 0,-25.951 25.595,0 0,-25.381 51.192,0 0,-25.388 30.719,0 0,50.769 z"
         id="path5057" />
      <path
         style="fill:#00aada"
         inkscape:connector-curvature="0"
         clip-path="url(#SVGID_2_)"
         d="m 249.582,61.137 c 1.716,-13.23 -8.266,-23.621 -14.459,-28.552 -7.135,8.178 -8.244,29.614 2.948,38.64 -6.245,5.502 -19.404,10.49 -32.879,10.49 l -164.05,0 c -1.31,13.949 1.161,26.796 6.801,37.796 l 1.866,3.384 c 1.181,1.991 2.472,3.911 3.869,5.756 6.744,0.43 12.962,0.576 18.649,0.456 l 0.003,0 c 11.178,-0.248 20.301,-1.555 27.217,-3.935 1.031,-0.354 2.148,0.19 2.505,1.209 0.358,1.018 -0.187,2.134 -1.214,2.484 -0.918,0.317 -1.879,0.609 -2.869,0.896 l -0.005,0 c -5.443,1.541 -11.281,2.579 -18.811,3.036 0.444,0.009 -0.464,0.068 -0.468,0.068 -0.256,0.018 -0.578,0.052 -0.836,0.065 -2.965,0.168 -6.163,0.203 -9.434,0.203 -3.579,0 -7.103,-0.069 -11.041,-0.269 l -0.101,0.065 c 13.671,15.238 35.041,24.373 61.831,24.373 56.696,0 104.788,-24.922 126.081,-80.883 15.109,1.538 29.631,-2.28 36.238,-15.068 C 270.9,55.333 257.37,57.253 249.582,61.137"
         id="path5059" />
      <path
         style="fill:#24b8eb"
         inkscape:connector-curvature="0"
         clip-path="url(#SVGID_2_)"
         d="m 249.582,61.137 c 1.716,-13.23 -8.266,-23.621 -14.459,-28.552 -7.135,8.178 -8.244,29.614 2.948,38.64 -6.245,5.502 -19.404,10.49 -32.879,10.49 l -154.336,0 c -0.671,21.362 7.324,37.582 21.47,47.392 l 0.003,0 c 11.178,-0.248 20.301,-1.555 27.217,-3.935 1.031,-0.354 2.148,0.19 2.505,1.209 0.358,1.018 -0.187,2.134 -1.214,2.484 -0.918,0.317 -1.879,0.609 -2.869,0.896 l -0.005,0 c -5.443,1.541 -11.78,2.71 -19.312,3.17 -0.006,0 -0.183,-0.172 -0.183,-0.172 19.293,9.813 47.271,9.78 79.351,-2.438 35.966,-13.703 69.435,-39.812 92.786,-69.671 -0.349,0.162 -0.693,0.319 -1.023,0.487"
         id="path5061" />
      <path
         style="fill:#008bb8"
         inkscape:connector-curvature="0"
         clip-path="url(#SVGID_2_)"
         d="m 41.451,98.665 c 1.017,7.476 3.222,14.473 6.492,20.847 l 1.866,3.383 c 1.181,1.992 2.472,3.912 3.869,5.757 6.744,0.43 12.962,0.576 18.652,0.456 11.178,-0.248 20.301,-1.555 27.217,-3.935 1.03,-0.354 2.148,0.19 2.505,1.209 0.358,1.018 -0.187,2.134 -1.214,2.485 -0.918,0.316 -1.879,0.608 -2.869,0.895 l -0.005,0 c -5.443,1.541 -11.749,2.645 -19.28,3.105 -0.255,0.017 -0.707,0.02 -0.969,0.032 -2.961,0.166 -6.13,0.268 -9.399,0.268 -3.578,0 -7.237,-0.067 -11.176,-0.268 13.67,15.238 35.174,24.405 61.964,24.405 48.54,0 90.765,-18.27 115.276,-58.64 l -192.929,0 z"
         id="path5063" />
      <path
         style="fill:#039bc6"
         inkscape:connector-curvature="0"
         clip-path="url(#SVGID_2_)"
         d="m 52.334,98.665 c 2.901,13.124 9.875,23.422 19.996,30.442 11.178,-0.248 20.301,-1.555 27.217,-3.935 1.03,-0.354 2.147,0.19 2.504,1.209 0.359,1.018 -0.187,2.134 -1.213,2.485 -0.918,0.316 -1.879,0.608 -2.869,0.895 l -0.005,0 c -5.443,1.541 -11.882,2.645 -19.413,3.105 19.293,9.815 47.191,9.673 79.269,-2.545 19.402,-7.396 38.076,-18.399 54.833,-31.657 l -160.319,0 z"
         id="path5065" />
      <path
         style="clip-rule:evenodd;fill:#00acd3;fill-rule:evenodd"
         inkscape:connector-curvature="0"
         clip-path="url(#SVGID_2_)"
         d="m 81.991,57.6 1.754,0 0,18.336 -1.754,0 0,-18.336 z m -3.361,0 1.821,0 0,18.336 -1.821,0 0,-18.336 z m -3.36,0 1.823,0 0,18.336 -1.823,0 0,-18.336 z m -3.362,0 1.821,0 0,18.336 -1.821,0 0,-18.336 z m -3.363,0 1.822,0 0,18.336 -1.822,0 0,-18.336 z m -3.29,0 1.752,0 0,18.336 -1.752,0 0,-18.336 z m -1.845,-1.835 22.182,0 0,22.002 -22.182,0 0,-22.002 z"
         id="path5067" />
      <path
         style="clip-rule:evenodd;fill:#00acd3;fill-rule:evenodd"
         inkscape:connector-curvature="0"
         clip-path="url(#SVGID_2_)"
         d="m 107.589,32.214 1.753,0 0,18.334 -1.753,0 0,-18.334 z m -3.359,0 1.821,0 0,18.334 -1.821,0 0,-18.334 z m -3.362,0 1.819,0 0,18.334 -1.819,0 0,-18.334 z m -3.366,0 1.823,0 0,18.334 -1.823,0 0,-18.334 z m -3.355,0 1.82,0 0,18.334 -1.82,0 0,-18.334 z m -3.293,0 1.75,0 0,18.334 -1.75,0 0,-18.334 z m -1.851,-1.833 22.186,0 0,22.001 -22.186,0 0,-22.001 z"
         id="path5069" />
      <path
         style="clip-rule:evenodd;fill:#20c2ef;fill-rule:evenodd"
         inkscape:connector-curvature="0"
         clip-path="url(#SVGID_2_)"
         d="m 107.589,57.6 1.753,0 0,18.336 -1.753,0 0,-18.336 z m -3.359,0 1.821,0 0,18.336 -1.821,0 0,-18.336 z m -3.362,0 1.819,0 0,18.336 -1.819,0 0,-18.336 z m -3.366,0 1.823,0 0,18.336 -1.823,0 0,-18.336 z m -3.355,0 1.82,0 0,18.336 -1.82,0 0,-18.336 z m -3.293,0 1.75,0 0,18.336 -1.75,0 0,-18.336 z m -1.851,-1.835 22.186,0 0,22.002 -22.186,0 0,-22.002 z"
         id="path5071" />
      <path
         style="clip-rule:evenodd;fill:#00acd3;fill-rule:evenodd"
         inkscape:connector-curvature="0"
         clip-path="url(#SVGID_2_)"
         d="m 133.188,57.6 1.751,0 0,18.336 -1.751,0 0,-18.336 z m -3.364,0 1.823,0 0,18.336 -1.823,0 0,-18.336 z m -3.358,0 1.82,0 0,18.336 -1.82,0 0,-18.336 z m -3.361,0 1.82,0 0,18.336 -1.82,0 0,-18.336 z m -3.364,0 1.821,0 0,18.336 -1.821,0 0,-18.336 z m -3.292,0 1.752,0 0,18.336 -1.752,0 0,-18.336 z m -1.845,-1.835 22.185,0 0,22.002 -22.185,0 0,-22.002 z"
         id="path5073" />
      <path
         style="clip-rule:evenodd;fill:#20c2ef;fill-rule:evenodd"
         inkscape:connector-curvature="0"
         clip-path="url(#SVGID_2_)"
         d="m 133.188,32.214 1.751,0 0,18.334 -1.751,0 0,-18.334 z m -3.364,0 1.823,0 0,18.334 -1.823,0 0,-18.334 z m -3.358,0 1.82,0 0,18.334 -1.82,0 0,-18.334 z m -3.361,0 1.82,0 0,18.334 -1.82,0 0,-18.334 z m -3.364,0 1.821,0 0,18.334 -1.821,0 0,-18.334 z m -3.292,0 1.752,0 0,18.334 -1.752,0 0,-18.334 z m -1.845,-1.833 22.185,0 0,22.001 -22.185,0 0,-22.001 z"
         id="path5075" />
      <path
         style="clip-rule:evenodd;fill:#20c2ef;fill-rule:evenodd"
         inkscape:connector-curvature="0"
         clip-path="url(#SVGID_2_)"
         d="m 158.786,57.6 1.754,0 0,18.336 -1.754,0 0,-18.336 z m -3.362,0 1.822,0 0,18.336 -1.822,0 0,-18.336 z m -3.361,0 1.82,0 0,18.336 -1.82,0 0,-18.336 z m -3.36,0 1.82,0 0,18.336 -1.82,0 0,-18.336 z m -3.362,0 1.821,0 0,18.336 -1.821,0 0,-18.336 z m -3.294,0 1.753,0 0,18.336 -1.753,0 0,-18.336 z m -1.847,-1.835 22.185,0 0,22.002 -22.185,0 0,-22.002 z"
         id="path5077" />
      <path
         style="clip-rule:evenodd;fill:#00acd3;fill-rule:evenodd"
         inkscape:connector-curvature="0"
         clip-path="url(#SVGID_2_)"
         d="m 158.786,32.214 1.754,0 0,18.334 -1.754,0 0,-18.334 z m -3.362,0 1.822,0 0,18.334 -1.822,0 0,-18.334 z m -3.361,0 1.82,0 0,18.334 -1.82,0 0,-18.334 z m -3.36,0 1.82,0 0,18.334 -1.82,0 0,-18.334 z m -3.362,0 1.821,0 0,18.334 -1.821,0 0,-18.334 z m -3.294,0 1.753,0 0,18.334 -1.753,0 0,-18.334 z m -1.847,-1.833 22.185,0 0,22.001 -22.185,0 0,-22.001 z"
         id="path5079" />
      <path
         style="clip-rule:evenodd;fill:#20c2ef;fill-rule:evenodd"
         inkscape:connector-curvature="0"
         clip-path="url(#SVGID_2_)"
         d="m 158.786,6.827 1.754,0 0,18.337 -1.754,0 0,-18.337 z m -3.362,0 1.822,0 0,18.337 -1.822,0 0,-18.337 z m -3.361,0 1.82,0 0,18.337 -1.82,0 0,-18.337 z m -3.36,0 1.82,0 0,18.337 -1.82,0 0,-18.337 z m -3.362,0 1.821,0 0,18.337 -1.821,0 0,-18.337 z m -3.294,0 1.753,0 0,18.337 -1.753,0 0,-18.337 z m -1.847,-1.832 22.185,0 0,22.001 -22.185,0 0,-22.001 z"
         id="path5081" />
      <path
         style="clip-rule:evenodd;fill:#00acd3;fill-rule:evenodd"
         inkscape:connector-curvature="0"
         clip-path="url(#SVGID_2_)"
         d="m 184.381,57.6 1.751,0 0,18.336 -1.751,0 0,-18.336 z m -3.36,0 1.82,0 0,18.336 -1.82,0 0,-18.336 z m -3.364,0 1.821,0 0,18.336 -1.821,0 0,-18.336 z m -3.359,0 1.821,0 0,18.336 -1.821,0 0,-18.336 z m -3.36,0 1.818,0 0,18.336 -1.818,0 0,-18.336 z m -3.292,0 1.749,0 0,18.336 -1.749,0 0,-18.336 z m -1.85,-1.835 22.182,0 0,22.002 -22.182,0 0,-22.002 z"
         id="path5083" />
      <path
         style="clip-rule:evenodd;fill:#d4edf1;fill-rule:evenodd"
         inkscape:connector-curvature="0"
         clip-path="url(#SVGID_2_)"
         d="m 109.802,113.439 c 3.38,0 6.122,2.717 6.122,6.066 0,3.355 -2.742,6.07 -6.122,6.07 -3.382,0 -6.12,-2.715 -6.12,-6.07 0,-3.349 2.738,-6.066 6.12,-6.066"
         id="path5085" />
      <path
         style="clip-rule:evenodd;fill:#394d54;fill-rule:evenodd"
         inkscape:connector-curvature="0"
         clip-path="url(#SVGID_2_)"
         d="m 109.802,115.156 c 0.559,0 1.092,0.109 1.583,0.297 -0.531,0.306 -0.892,0.881 -0.892,1.536 0,0.979 0.8,1.773 1.789,1.773 0.677,0 1.265,-0.37 1.567,-0.924 0.216,0.515 0.333,1.075 0.333,1.667 0,2.401 -1.961,4.35 -4.38,4.35 -2.421,0 -4.385,-1.948 -4.385,-4.35 0,-2.398 1.964,-4.349 4.385,-4.349"
         id="path5087" />
      <path
         style="clip-rule:evenodd;fill:#394d54;fill-rule:evenodd"
         inkscape:connector-curvature="0"
         clip-path="url(#SVGID_2_)"
         d="m 1.548,100.859 134.064,0 16.579,0 134.06,0 c -6.202,-1.561 -19.616,-3.665 -17.402,-11.723 -11.272,12.937 -38.458,9.075 -45.318,2.697 -7.637,10.989 -52.114,6.812 -55.214,-1.75 -9.577,11.147 -39.256,11.147 -48.836,0 -3.103,8.562 -47.574,12.739 -55.214,1.75 -6.863,6.378 -34.045,10.239 -45.316,-2.697 2.211,8.058 -11.203,10.162 -17.403,11.723"
         id="path5089" />
      <path
         style="fill:#bfdbe0"
         inkscape:connector-curvature="0"
         clip-path="url(#SVGID_2_)"
         d="m 126.072,157.175 c -15.157,-7.134 -23.478,-16.826 -28.108,-27.414 -5.629,1.594 -12.396,2.611 -20.26,3.05 -2.964,0.167 -6.077,0.247 -9.347,0.247 -3.771,0 -7.743,-0.111 -11.91,-0.329 13.898,13.777 30.995,24.384 62.657,24.575 2.335,0 4.659,-0.042 6.968,-0.129"
         id="path5091" />
      <path
         style="fill:#d4edf1"
         inkscape:connector-curvature="0"
         clip-path="url(#SVGID_2_)"
         d="m 103.595,139.528 c -2.098,-2.822 -4.13,-6.37 -5.626,-9.767 -5.634,1.594 -12.401,2.611 -20.265,3.05 5.4,2.908 13.128,5.601 25.891,6.717"
         id="path5093" />
    </g>
  </g>
</svg>
