<?xml version="1.0" encoding="UTF-8" standalone="no"?>
<!-- Created with Inkscape (http://www.inkscape.org/) -->
<svg id="svg21764" xmlns:rdf="http://www.w3.org/1999/02/22-rdf-syntax-ns#" xmlns="http://www.w3.org/2000/svg" height="44.161mm" width="154.35mm" version="1.1" xmlns:cc="http://creativecommons.org/ns#" xmlns:xlink="http://www.w3.org/1999/xlink" viewBox="0 0 546.91244 156.47751" xmlns:dc="http://purl.org/dc/elements/1.1/">
 <defs>
  <clipPath id="SVGID_2_">
   <use id="use5055" xlink:href="#SVGID_1_" height="100%" width="100%" y="0" x="0" overflow="visible"/>
  </clipPath>
  <rect id="SVGID_1_" y="-56.234" x="-56.164" height="275" width="800"/>
 </defs>
 <metadata id="metadata21769">
  <rdf:RDF>
   <cc:Work rdf:about="">
    <dc:format>image/svg+xml</dc:format>
    <dc:type rdf:resource="http://purl.org/dc/dcmitype/StillImage"/>
    <dc:title/>
   </cc:Work>
  </rdf:RDF>
 </metadata>
 <g id="layer1" transform="translate(-74.905 -53.588)">
  <g id="g4332" transform="matrix(1.25 0 0 -1.25 83.991 222.24)">
   <g id="g4323" transform="translate(-13.638 25.222)">
    <path id="path22" d="m32.256 60.936c0 3.426 2.778 6.205 6.204 6.205 3.427 0 6.204-2.779 6.204-6.205 0-3.429-2.777-6.206-6.204-6.206-3.426 0-6.204 2.777-6.204 6.206" fill="#bed13d"/>
    <path id="path26" d="m95.084 60.936c0 3.426 2.778 6.205 6.203 6.205 3.428 0 6.204-2.779 6.204-6.205 0-3.429-2.776-6.206-6.204-6.206-3.425 0-6.203 2.777-6.203 6.206" fill="#bcbec0"/>
    <path id="path30" d="m50.248 93.032c2.922 1.786 6.741 0.864 8.53-2.058 1.786-2.923 0.865-6.741-2.057-8.53-2.924-1.788-6.742-0.866-8.531 2.058-1.786 2.922-0.866 6.742 2.058 8.53" fill="#d1d3d4"/>
    <path id="path34" d="m83.024 39.429c2.922 1.788 6.742 0.865 8.53-2.057 1.786-2.922 0.866-6.742-2.057-8.53-2.924-1.788-6.742-0.865-8.53 2.058-1.786 2.922-0.867 6.741 2.057 8.529" fill="#939598"/>
    <path id="path38" d="m88.265 93.753c2.987-1.673 4.052-5.457 2.379-8.444-1.676-2.99-5.457-4.054-8.446-2.379-2.99 1.676-4.055 5.456-2.377 8.447 1.673 2.987 5.455 4.052 8.444 2.376" fill="#6d6f71"/>
    <path id="path42" d="m57.548 38.946c2.987-1.675 4.054-5.455 2.379-8.446-1.676-2.988-5.457-4.052-8.445-2.377-2.99 1.676-4.054 5.455-2.379 8.446 1.674 2.988 5.456 4.053 8.445 2.377" fill="#a7a9ac"/>
    <path id="path46" d="m51.979 71.078 17.729 10.424 17.892-10.141 0.167-20.567-17.732-10.427-17.892 10.143-0.164 20.568z" fill="#21bde4"/>
   </g>
   <g id="g4314" transform="matrix(.59314 0 0 .59314 -68.196 -3.9539)">
    <g fill="#bed13d">
     <path id="path50" d="m147.68 47.636h-5.334v15.417c0 1.912-0.361 3.34-1.085 4.282-0.723 0.941-1.853 1.414-3.391 1.414-2.047 0-3.55-0.667-4.508-2.001-0.956-1.334-1.436-3.553-1.436-6.657v-12.455h-5.309v25h4.158l0.744-3.277h0.273c0.692 1.189 1.699 2.108 3.016 2.757 1.319 0.648 2.769 0.972 4.351 0.972 3.843 0 6.389-1.312 7.639-3.933h0.361c0.741 1.236 1.78 2.199 3.121 2.894 1.341 0.692 2.877 1.039 4.61 1.039 2.984 0 5.157-0.754 6.52-2.261 1.365-1.506 2.046-3.805 2.046-6.895v-16.296h-5.311v15.417c0 1.912-0.365 3.34-1.096 4.282-0.73 0.941-1.864 1.414-3.401 1.414-2.065 0-3.575-0.644-4.532-1.934-0.957-1.287-1.436-3.266-1.436-5.932v-13.247z"/>
     <path id="path52" d="m173.86 47.637h-5.31v25h5.31v-25zm-5.628 31.622c0 0.949 0.26 1.68 0.779 2.192 0.522 0.512 1.264 0.767 2.229 0.767 0.934 0 1.66-0.255 2.18-0.767s0.78-1.243 0.78-2.192c0-0.904-0.26-1.617-0.78-2.137-0.52-0.519-1.246-0.779-2.18-0.779-0.965 0-1.707 0.26-2.229 0.779-0.519 0.52-0.779 1.233-0.779 2.137"/>
     <path id="path56" d="m189 51.481c2.187 0 3.773 0.61 4.771 1.839 0.994 1.228 1.505 3.224 1.535 5.978v0.749c0 3.148-0.512 5.387-1.535 6.712-1.026 1.326-2.629 1.99-4.817 1.99-1.867 0-3.308-0.758-4.314-2.271-1.011-1.516-1.515-3.676-1.515-6.477 0-2.774 0.488-4.885 1.469-6.339 0.978-1.454 2.447-2.181 4.406-2.181m-1.424-4.296c-3.119 0-5.553 1.131-7.301 3.391s-2.621 5.43-2.621 9.515c0 4.1 0.886 7.291 2.657 9.573 1.769 2.283 4.222 3.424 7.358 3.424 3.282 0 5.784-1.214 7.503-3.638h0.269c-0.254 1.792-0.381 3.209-0.381 4.248v9.109h5.333v-35.171h-4.161l-0.926 3.279h-0.246c-1.705-2.487-4.2-3.73-7.484-3.73"/>
     <path id="path60" d="m209.65 60.182c0-5.771 2.133-8.657 6.396-8.657 4.218 0 6.329 2.886 6.329 8.657 0 5.709-2.124 8.567-6.373 8.567-2.233 0-3.847-0.738-4.848-2.216-1.004-1.477-1.504-3.593-1.504-6.351m18.193 0c0-4.085-1.047-7.271-3.14-9.563-2.096-2.29-5.011-3.434-8.746-3.434-2.337 0-4.403 0.527-6.195 1.581-1.793 1.054-3.173 2.569-4.134 4.543-0.965 1.974-1.448 4.268-1.448 6.873 0 4.052 1.039 7.218 3.118 9.493 2.081 2.275 5.01 3.413 8.792 3.413 3.618 0 6.481-1.165 8.59-3.492 2.109-2.329 3.163-5.467 3.163-9.414"/>
    </g>
    <g fill="#939598">
     <path id="path64" d="m248.76 47.636v16.027c0 2.017-0.46 3.526-1.377 4.52-0.92 0.995-2.358 1.492-4.317 1.492-2.591 0-4.492-0.702-5.697-2.102-1.206-1.401-1.806-3.715-1.806-6.941v-12.996h-3.753v24.772h3.052l0.61-3.389h0.18c0.767 1.219 1.845 2.166 3.231 2.837 1.388 0.67 2.933 1.006 4.636 1.006 2.98 0 5.226-0.719 6.733-2.158 1.506-1.44 2.261-3.742 2.261-6.906v-16.162h-3.753z"/>
     <path id="path68" d="m267.35 69.719c-1.989 0-3.573-0.646-4.758-1.942-1.181-1.296-1.881-3.089-2.092-5.38h12.953c0 2.365-0.528 4.178-1.582 5.436-1.055 1.257-2.562 1.886-4.521 1.886m1.019-22.534c-3.664 0-6.551 1.117-8.668 3.344-2.119 2.232-3.177 5.328-3.177 9.291 0 3.993 0.982 7.166 2.948 9.516 1.969 2.35 4.608 3.527 7.924 3.527 3.103 0 5.558-1.021 7.368-3.064 1.81-2.042 2.711-4.735 2.711-8.08v-2.373h-17.063c0.076-2.908 0.808-5.117 2.204-6.622 1.392-1.508 3.355-2.26 5.886-2.26 2.667 0 5.304 0.555 7.911 1.672v-3.344c-1.326-0.574-2.582-0.985-3.761-1.233-1.185-0.25-2.613-0.374-4.283-0.374"/>
     <path id="path72" d="m289.56 50.282c0.662 0 1.303 0.047 1.921 0.146 0.616 0.097 1.107 0.2 1.47 0.304v-2.867c-0.409-0.196-1.007-0.359-1.797-0.487-0.793-0.127-1.503-0.193-2.139-0.193-4.789 0-7.185 2.523-7.185 7.571v14.737h-3.548v1.809l3.548 1.561 1.583 5.288h2.168v-5.743h7.188v-2.915h-7.188v-14.577c0-1.494 0.355-2.639 1.061-3.435 0.71-0.8 1.682-1.199 2.918-1.199"/>
    </g>
   </g>
  </g>
  <g id="layer1-8-6" transform="matrix(.28880 0 0 .28880 204.41 -14.555)">
   <g id="g7616-4-7" transform="translate(-122 44)">
    <g id="g6888-8-0" fill="#c798e2" transform="matrix(1.1475 0 0 1.1475 87.661 133.31)">
     <g id="g6890-2-5" enable-background="new    " fill="#c798e2">
      <g id="g6892-8-8">
       <polygon id="polygon6894-8-7" stroke="#fff" points="351.6 106.68 521.52 165.73 352.66 224.8 182.73 165.76" stroke-miterlimit="10" stroke-width="4" fill="#c798e2"/>
      </g>
      <g id="g6896-6-9">
       <polygon id="polygon6898-9-6" stroke="#fff" points="352.66 224.8 521.52 165.73 520.63 406 351.75 465.08" stroke-miterlimit="10" stroke-width="4" fill="#c798e2"/>
      </g>
      <g id="g6900-5-5">
       <polygon id="polygon6902-5-2" stroke="#fff" points="182.73 165.76 352.66 224.8 351.75 465.08 181.83 406.03" stroke-miterlimit="10" stroke-width="4" fill="#c798e2"/>
      </g>
     </g>
    </g>
    <g id="g7569-2-9" transform="matrix(5.3279 0 0 5.3279 -880.17 -1005.5)">
     <g id="g7554-67-4" fill="#c798e2">
      <ellipse id="path7550-6-3" rx="5.0034" ry="4.8946" cy="280.32" cx="305.06"/>
      <path id="path7552-5-3" d="m300.38 281.74h-9.0625v-3.3125h9.125z" fill-rule="evenodd"/>
     </g>
    </g>
    <g id="g7554-6-7-4" fill="#c798e2" transform="matrix(-5.3279 0 0 5.3279 1855.4 -1004)">
     <ellipse id="path7550-5-7-7" rx="5.0034" ry="4.8946" cy="280.32" cx="305.06"/>
     <path id="path7552-2-8-0" d="m300.38 281.74h-9.0625v-3.3125h9.125z" fill-rule="evenodd"/>
    </g>
   </g>
  </g>
  <g id="g5049" transform="matrix(.73080 0 0 .73080 394.31 74.298)">
   <clipPath id="clipPath5192">
    <use id="use5194" xlink:href="#SVGID_1_" height="100%" width="100%" y="0" x="0" overflow="visible"/>
   </clipPath>
   <path id="path5057" d="m166.65 51.535h25.594v25.951h12.948c5.976 0 12.121-1.056 17.783-2.96 2.781-0.933 5.899-2.234 8.646-3.87-3.614-4.68-5.458-10.588-6.002-16.41-0.735-7.92 0.871-18.232 6.279-24.43l2.69-3.087 3.206 2.558c8.074 6.434 14.861 15.418 16.057 25.664 9.723-2.834 21.132-2.164 29.704 2.739l3.512 2.01-1.851 3.582c-7.245 14.023-22.392 18.371-37.204 17.6-22.161 54.74-70.408 80.656-128.91 80.656-30.225 0-57.954-11.205-73.743-37.792l-0.26-0.439-2.299-4.64c-5.346-11.71-7.12-24.535-5.916-37.347l0.359-3.837h21.89v-25.951h25.595v-25.381h51.192v-25.388h30.719v50.769z" fill-rule="evenodd" clip-path="url(#SVGID_2_)" clip-rule="evenodd" fill="#394d54"/>
   <path id="path5059" d="m249.58 61.137c1.716-13.23-8.266-23.621-14.459-28.552-7.135 8.178-8.244 29.614 2.948 38.64-6.245 5.502-19.404 10.49-32.879 10.49h-164.05c-1.31 13.949 1.161 26.796 6.801 37.796l1.866 3.384c1.181 1.991 2.472 3.911 3.869 5.756 6.744 0.43 12.962 0.576 18.649 0.456h0.003c11.178-0.248 20.301-1.555 27.217-3.935 1.031-0.354 2.148 0.19 2.505 1.209 0.358 1.018-0.187 2.134-1.214 2.484-0.918 0.317-1.879 0.609-2.869 0.896h-0.005c-5.443 1.541-11.281 2.579-18.811 3.036 0.444 0.009-0.464 0.068-0.468 0.068-0.256 0.018-0.578 0.052-0.836 0.065-2.965 0.168-6.163 0.203-9.434 0.203-3.579 0-7.103-0.069-11.041-0.269l-0.101 0.065c13.671 15.238 35.041 24.373 61.831 24.373 56.696 0 104.79-24.922 126.08-80.883 15.109 1.538 29.631-2.28 36.238-15.068-10.52-6.009-24.05-4.089-31.84-0.205" clip-path="url(#SVGID_2_)" fill="#00aada"/>
   <path id="path5061" d="m249.58 61.137c1.716-13.23-8.266-23.621-14.459-28.552-7.135 8.178-8.244 29.614 2.948 38.64-6.245 5.502-19.404 10.49-32.879 10.49h-154.34c-0.671 21.362 7.324 37.582 21.47 47.392h0.003c11.178-0.248 20.301-1.555 27.217-3.935 1.031-0.354 2.148 0.19 2.505 1.209 0.358 1.018-0.187 2.134-1.214 2.484-0.918 0.317-1.879 0.609-2.869 0.896h-0.005c-5.443 1.541-11.78 2.71-19.312 3.17-0.006 0-0.183-0.172-0.183-0.172 19.293 9.813 47.271 9.78 79.351-2.438 35.966-13.703 69.435-39.812 92.786-69.671-0.349 0.162-0.693 0.319-1.023 0.487" clip-path="url(#SVGID_2_)" fill="#24b8eb"/>
   <path id="path5063" d="m41.451 98.665c1.017 7.476 3.222 14.473 6.492 20.847l1.866 3.383c1.181 1.992 2.472 3.912 3.869 5.757 6.744 0.43 12.962 0.576 18.652 0.456 11.178-0.248 20.301-1.555 27.217-3.935 1.03-0.354 2.148 0.19 2.505 1.209 0.358 1.018-0.187 2.134-1.214 2.485-0.918 0.316-1.879 0.608-2.869 0.895h-0.005c-5.443 1.541-11.749 2.645-19.28 3.105-0.255 0.017-0.707 0.02-0.969 0.032-2.961 0.166-6.13 0.268-9.399 0.268-3.578 0-7.237-0.067-11.176-0.268 13.67 15.238 35.174 24.405 61.964 24.405 48.54 0 90.765-18.27 115.28-58.64h-192.93z" clip-path="url(#SVGID_2_)" fill="#008bb8"/>
   <path id="path5065" d="m52.334 98.665c2.901 13.124 9.875 23.422 19.996 30.442 11.178-0.248 20.301-1.555 27.217-3.935 1.03-0.354 2.147 0.19 2.504 1.209 0.359 1.018-0.187 2.134-1.213 2.485-0.918 0.316-1.879 0.608-2.869 0.895h-0.005c-5.443 1.541-11.882 2.645-19.413 3.105 19.293 9.815 47.191 9.673 79.269-2.545 19.402-7.396 38.076-18.399 54.833-31.657h-160.32z" clip-path="url(#SVGID_2_)" fill="#039bc6"/>
   <g clip-rule="evenodd" fill-rule="evenodd">
    <path id="path5067" d="m81.991 57.6h1.754v18.336h-1.754v-18.336zm-3.361 0h1.821v18.336h-1.821v-18.336zm-3.36 0h1.823v18.336h-1.823v-18.336zm-3.362 0h1.821v18.336h-1.821v-18.336zm-3.363 0h1.822v18.336h-1.822v-18.336zm-3.29 0h1.752v18.336h-1.752v-18.336zm-1.845-1.835h22.182v22.002h-22.182v-22.002z" clip-path="url(#SVGID_2_)" fill="#00acd3"/>
    <path id="path5069" d="m107.59 32.214h1.753v18.334h-1.753v-18.334zm-3.359 0h1.821v18.334h-1.821v-18.334zm-3.362 0h1.819v18.334h-1.819v-18.334zm-3.366 0h1.823v18.334h-1.823v-18.334zm-3.355 0h1.82v18.334h-1.82v-18.334zm-3.293 0h1.75v18.334h-1.75v-18.334zm-1.851-1.833h22.186v22.001h-22.186v-22.001z" clip-path="url(#SVGID_2_)" fill="#00acd3"/>
    <path id="path5071" d="m107.59 57.6h1.753v18.336h-1.753v-18.336zm-3.359 0h1.821v18.336h-1.821v-18.336zm-3.362 0h1.819v18.336h-1.819v-18.336zm-3.366 0h1.823v18.336h-1.823v-18.336zm-3.355 0h1.82v18.336h-1.82v-18.336zm-3.293 0h1.75v18.336h-1.75v-18.336zm-1.851-1.835h22.186v22.002h-22.186v-22.002z" clip-path="url(#SVGID_2_)" fill="#20c2ef"/>
    <path id="path5073" d="m133.19 57.6h1.751v18.336h-1.751v-18.336zm-3.364 0h1.823v18.336h-1.823v-18.336zm-3.358 0h1.82v18.336h-1.82v-18.336zm-3.361 0h1.82v18.336h-1.82v-18.336zm-3.364 0h1.821v18.336h-1.821v-18.336zm-3.292 0h1.752v18.336h-1.752v-18.336zm-1.845-1.835h22.185v22.002h-22.185v-22.002z" clip-path="url(#SVGID_2_)" fill="#00acd3"/>
    <path id="path5075" d="m133.19 32.214h1.751v18.334h-1.751v-18.334zm-3.364 0h1.823v18.334h-1.823v-18.334zm-3.358 0h1.82v18.334h-1.82v-18.334zm-3.361 0h1.82v18.334h-1.82v-18.334zm-3.364 0h1.821v18.334h-1.821v-18.334zm-3.292 0h1.752v18.334h-1.752v-18.334zm-1.845-1.833h22.185v22.001h-22.185v-22.001z" clip-path="url(#SVGID_2_)" fill="#20c2ef"/>
    <path id="path5077" d="m158.79 57.6h1.754v18.336h-1.754v-18.336zm-3.362 0h1.822v18.336h-1.822v-18.336zm-3.361 0h1.82v18.336h-1.82v-18.336zm-3.36 0h1.82v18.336h-1.82v-18.336zm-3.362 0h1.821v18.336h-1.821v-18.336zm-3.294 0h1.753v18.336h-1.753v-18.336zm-1.847-1.835h22.185v22.002h-22.185v-22.002z" clip-path="url(#SVGID_2_)" fill="#20c2ef"/>
    <path id="path5079" d="m158.79 32.214h1.754v18.334h-1.754v-18.334zm-3.362 0h1.822v18.334h-1.822v-18.334zm-3.361 0h1.82v18.334h-1.82v-18.334zm-3.36 0h1.82v18.334h-1.82v-18.334zm-3.362 0h1.821v18.334h-1.821v-18.334zm-3.294 0h1.753v18.334h-1.753v-18.334zm-1.847-1.833h22.185v22.001h-22.185v-22.001z" clip-path="url(#SVGID_2_)" fill="#00acd3"/>
    <path id="path5081" d="m158.79 6.827h1.754v18.337h-1.754v-18.337zm-3.362 0h1.822v18.337h-1.822v-18.337zm-3.361 0h1.82v18.337h-1.82v-18.337zm-3.36 0h1.82v18.337h-1.82v-18.337zm-3.362 0h1.821v18.337h-1.821v-18.337zm-3.294 0h1.753v18.337h-1.753v-18.337zm-1.847-1.832h22.185v22.001h-22.185v-22.001z" clip-path="url(#SVGID_2_)" fill="#20c2ef"/>
    <path id="path5083" d="m184.38 57.6h1.751v18.336h-1.751v-18.336zm-3.36 0h1.82v18.336h-1.82v-18.336zm-3.364 0h1.821v18.336h-1.821v-18.336zm-3.359 0h1.821v18.336h-1.821v-18.336zm-3.36 0h1.818v18.336h-1.818v-18.336zm-3.292 0h1.749v18.336h-1.749v-18.336zm-1.85-1.835h22.182v22.002h-22.182v-22.002z" clip-path="url(#SVGID_2_)" fill="#00acd3"/>
    <path id="path5085" d="m109.8 113.44c3.38 0 6.122 2.717 6.122 6.066 0 3.355-2.742 6.07-6.122 6.07-3.382 0-6.12-2.715-6.12-6.07 0-3.349 2.738-6.066 6.12-6.066" clip-path="url(#SVGID_2_)" fill="#d4edf1"/>
    <path id="path5087" d="m109.8 115.16c0.559 0 1.092 0.109 1.583 0.297-0.531 0.306-0.892 0.881-0.892 1.536 0 0.979 0.8 1.773 1.789 1.773 0.677 0 1.265-0.37 1.567-0.924 0.216 0.515 0.333 1.075 0.333 1.667 0 2.401-1.961 4.35-4.38 4.35-2.421 0-4.385-1.948-4.385-4.35 0-2.398 1.964-4.349 4.385-4.349" clip-path="url(#SVGID_2_)" fill="#394d54"/>
    <path id="path5089" d="m1.548 100.86h134.06 16.579 134.06c-6.202-1.561-19.616-3.665-17.402-11.723-11.272 12.937-38.458 9.075-45.318 2.697-7.637 10.989-52.114 6.812-55.214-1.75-9.577 11.147-39.256 11.147-48.836 0-3.103 8.562-47.574 12.739-55.214 1.75-6.863 6.378-34.045 10.239-45.316-2.697 2.211 8.058-11.203 10.162-17.403 11.723" clip-path="url(#SVGID_2_)" fill="#394d54"/>
   </g>
   <path id="path5091" d="m126.07 157.18c-15.157-7.134-23.478-16.826-28.108-27.414-5.629 1.594-12.396 2.611-20.26 3.05-2.964 0.167-6.077 0.247-9.347 0.247-3.771 0-7.743-0.111-11.91-0.329 13.898 13.777 30.995 24.384 62.657 24.575 2.335 0 4.659-0.042 6.968-0.129" clip-path="url(#SVGID_2_)" fill="#bfdbe0"/>
   <path id="path5093" d="m103.6 139.53c-2.098-2.822-4.13-6.37-5.626-9.767-5.634 1.594-12.401 2.611-20.265 3.05 5.4 2.908 13.128 5.601 25.891 6.717" clip-path="url(#SVGID_2_)" fill="#d4edf1"/>
  </g>
 </g>
</svg>
