<?xml version="1.0" encoding="UTF-8" standalone="no"?>
<!-- Created with Inkscape (http://www.inkscape.org/) -->

<svg
   xmlns:dc="http://purl.org/dc/elements/1.1/"
   xmlns:cc="http://creativecommons.org/ns#"
   xmlns:rdf="http://www.w3.org/1999/02/22-rdf-syntax-ns#"
   xmlns:svg="http://www.w3.org/2000/svg"
   xmlns="http://www.w3.org/2000/svg"
   xmlns:sodipodi="http://sodipodi.sourceforge.net/DTD/sodipodi-0.dtd"
   xmlns:inkscape="http://www.inkscape.org/namespaces/inkscape"
   id="svg2"
   version="1.1"
   inkscape:version="0.91 r13725"
   width="180"
   height="110.98726"
   xml:space="preserve"
   sodipodi:docname="mido_day_logo.svg"><metadata
     id="metadata8"><rdf:RDF><cc:Work
         rdf:about=""><dc:format>image/svg+xml</dc:format><dc:type
           rdf:resource="http://purl.org/dc/dcmitype/StillImage" /><dc:title></dc:title></cc:Work></rdf:RDF></metadata><defs
     id="defs6"><clipPath
       clipPathUnits="userSpaceOnUse"
       id="clipPath16"><path
         d="m 0,0 314.103,0 0,125.641 L 0,125.641 0,0 Z"
         id="path18"
         inkscape:connector-curvature="0" /></clipPath></defs><sodipodi:namedview
     pagecolor="#ffffff"
     bordercolor="#666666"
     borderopacity="1"
     objecttolerance="10"
     gridtolerance="10"
     guidetolerance="10"
     inkscape:pageopacity="0"
     inkscape:pageshadow="2"
     inkscape:window-width="2560"
     inkscape:window-height="1456"
     id="namedview4"
     showgrid="false"
     inkscape:zoom="4.2502608"
     inkscape:cx="226.67259"
     inkscape:cy="-24.916179"
     inkscape:window-x="0"
     inkscape:window-y="64"
     inkscape:window-maximized="1"
     inkscape:current-layer="g10"
     fit-margin-top="2"
     fit-margin-right="0.8"
     fit-margin-left="0.8"
     fit-margin-bottom="2" /><g
     id="g10"
     inkscape:groupmode="layer"
     inkscape:label="midonet-logo"
     transform="matrix(1.25,0,0,-1.25,-160.52687,107.86163)"><g
       id="g3549"
       transform="translate(21.295086,0)"><path
         d="m 150.1245,49.5186 -5.334,0 0,15.417 c 0,1.912 -0.361,3.34 -1.085,4.282 -0.723,0.941 -1.853,1.414 -3.391,1.414 -2.047,0 -3.55,-0.667 -4.508,-2.001 -0.956,-1.334 -1.436,-3.553 -1.436,-6.657 l 0,-12.455 -5.309,0 0,25 4.158,0 0.744,-3.277 0.273,0 c 0.692,1.189 1.699,2.108 3.016,2.757 1.319,0.648 2.769,0.972 4.351,0.972 3.843,0 6.389,-1.312 7.639,-3.933 l 0.361,0 c 0.741,1.236 1.78,2.199 3.121,2.894 1.341,0.692 2.877,1.039 4.61,1.039 2.984,0 5.157,-0.754 6.52,-2.261 1.365,-1.506 2.046,-3.805 2.046,-6.895 l 0,-16.296 -5.311,0 0,15.417 c 0,1.912 -0.365,3.34 -1.096,4.282 -0.73,0.941 -1.864,1.414 -3.401,1.414 -2.065,0 -3.575,-0.644 -4.532,-1.934 -0.957,-1.287 -1.436,-3.266 -1.436,-5.932 l 0,-13.247 z"
         style="fill:#bed13d;fill-opacity:1;fill-rule:nonzero;stroke:none"
         id="path50"
         inkscape:connector-curvature="0" /><path
         inkscape:connector-curvature="0"
         id="path52"
         style="fill:#bed13d;fill-opacity:1;fill-rule:nonzero;stroke:none"
         d="m 176.31,49.519 -5.31,0 0,25 5.31,0 0,-25 z m -5.628,31.622 c 0,0.949 0.26,1.68 0.779,2.192 0.522,0.512 1.264,0.767 2.229,0.767 0.934,0 1.66,-0.255 2.18,-0.767 0.52,-0.512 0.78,-1.243 0.78,-2.192 0,-0.904 -0.26,-1.617 -0.78,-2.137 -0.52,-0.519 -1.246,-0.779 -2.18,-0.779 -0.965,0 -1.707,0.26 -2.229,0.779 -0.519,0.52 -0.779,1.233 -0.779,2.137" /><path
         d="m 191.4453,53.3633 c 2.187,0 3.773,0.61 4.771,1.839 0.994,1.228 1.505,3.224 1.535,5.978 l 0,0.749 c 0,3.148 -0.512,5.387 -1.535,6.712 -1.026,1.326 -2.629,1.99 -4.817,1.99 -1.867,0 -3.308,-0.758 -4.314,-2.271 -1.011,-1.516 -1.515,-3.676 -1.515,-6.477 0,-2.774 0.488,-4.885 1.469,-6.339 0.978,-1.454 2.447,-2.181 4.406,-2.181 m -1.424,-4.296 c -3.119,0 -5.553,1.131 -7.301,3.391 -1.748,2.26 -2.621,5.43 -2.621,9.515 0,4.1 0.886,7.291 2.657,9.573 1.769,2.283 4.222,3.424 7.358,3.424 3.282,0 5.784,-1.214 7.503,-3.638 l 0.269,0 c -0.254,1.792 -0.381,3.209 -0.381,4.248 l 0,9.109 5.333,0 0,-35.171 -4.161,0 -0.926,3.279 -0.246,0 c -1.705,-2.487 -4.2,-3.73 -7.484,-3.73"
         style="fill:#bed13d;fill-opacity:1;fill-rule:nonzero;stroke:none"
         id="path56"
         inkscape:connector-curvature="0" /><path
         d="m 212.0938,62.0645 c 0,-5.771 2.133,-8.657 6.396,-8.657 4.218,0 6.329,2.886 6.329,8.657 0,5.709 -2.124,8.567 -6.373,8.567 -2.233,0 -3.847,-0.738 -4.848,-2.216 -1.004,-1.477 -1.504,-3.593 -1.504,-6.351 m 18.193,0 c 0,-4.085 -1.047,-7.271 -3.14,-9.563 -2.096,-2.29 -5.011,-3.434 -8.746,-3.434 -2.337,0 -4.403,0.527 -6.195,1.581 -1.793,1.054 -3.173,2.569 -4.134,4.543 -0.965,1.974 -1.448,4.268 -1.448,6.873 0,4.052 1.039,7.218 3.118,9.493 2.081,2.275 5.01,3.413 8.792,3.413 3.618,0 6.481,-1.165 8.59,-3.492 2.109,-2.329 3.163,-5.467 3.163,-9.414"
         style="fill:#bed13d;fill-opacity:1;fill-rule:nonzero;stroke:none"
         id="path60"
         inkscape:connector-curvature="0" /></g><g
       id="g3562"
       transform="translate(32.166261,0)"
       style="fill:#ffffff;fill-opacity:1"><g
         id="text3545"
         style="font-style:normal;font-variant:normal;font-weight:600;font-stretch:normal;font-size:47.04655838px;line-height:125%;font-family:'Open Sans';-inkscape-font-specification:'Open Sans Semi-Bold';letter-spacing:0px;word-spacing:0px;fill:#ffffff;fill-opacity:1;stroke:none;stroke-width:1px;stroke-linecap:butt;stroke-linejoin:miter;stroke-opacity:1"
         transform="scale(1,-1)"><path
           id="path3556"
           style="font-style:normal;font-variant:normal;font-weight:600;font-stretch:normal;font-family:'Open Sans';-inkscape-font-specification:'Open Sans Semi-Bold';fill:#ffffff;fill-opacity:1"
           d="m 139.14619,-9.9422553 q -4.7552,0 -7.41994,-3.4457927 -2.66475,-3.445793 -2.66475,-9.671192 0,-6.248371 2.68772,-9.717136 2.71069,-3.491737 7.48885,-3.491737 5.00789,0 7.62669,3.698485 l 0.27567,0 q -0.39053,-2.733663 -0.39053,-4.318727 l 0,-9.257697 5.42138,0 0,35.744358 -4.22684,0 -0.94185,-3.330933 -0.25269,0 q -2.59583,3.7903717 -7.60371,3.7903717 z m 1.44723,-4.3646707 q 3.33093,0 4.84708,-1.860728 1.51615,-1.8837 1.56209,-6.087568 l 0,-0.758074 q 0,-4.801138 -1.56209,-6.82267 -1.56209,-2.021532 -4.89302,-2.021532 -2.84853,0 -4.38765,2.320167 -1.53912,2.297196 -1.53912,6.569979 0,4.226839 1.49318,6.455118 1.49318,2.205308 4.47953,2.205308 z"
           inkscape:connector-curvature="0" /><path
           id="path3558"
           style="font-style:normal;font-variant:normal;font-weight:600;font-stretch:normal;font-family:'Open Sans';-inkscape-font-specification:'Open Sans Semi-Bold';fill:#ffffff;fill-opacity:1"
           d="m 175.78645,-10.401694 -1.07968,-3.537681 -0.18378,0 q -1.83775,2.320167 -3.69848,3.170129 -1.86073,0.8269907 -4.77817,0.8269907 -3.74442,0 -5.85784,-2.0215317 -2.09045,-2.021532 -2.09045,-5.720016 0,-3.928204 2.91744,-5.926764 2.91743,-1.99856 8.89014,-2.182335 l 4.38764,-0.137832 0,-1.355345 q 0,-2.435027 -1.14859,-3.629569 -1.12563,-1.217513 -3.51471,-1.217513 -1.95262,0 -3.74443,0.574299 -1.79181,0.574298 -3.44579,1.355345 l -1.74587,-3.859288 q 2.06747,-1.079682 4.52547,-1.631009 2.458,-0.574299 4.64034,-0.574299 4.84708,0 7.30508,2.11342 2.48097,2.11342 2.48097,6.638894 l 0,17.114105 -3.85929,0 z m -8.04018,-3.675513 q 2.94041,0 4.70925,-1.631008 1.79181,-1.653981 1.79181,-4.617363 l 0,-2.205307 -3.26202,0.137832 q -3.81334,0.137831 -5.55921,1.286429 -1.7229,1.125626 -1.7229,3.468765 0,1.699924 1.01077,2.641774 1.01077,0.918878 3.0323,0.918878 z"
           inkscape:connector-curvature="0" /><path
           id="path3560"
           style="font-style:normal;font-variant:normal;font-weight:600;font-stretch:normal;font-family:'Open Sans';-inkscape-font-specification:'Open Sans Semi-Bold';fill:#ffffff;fill-opacity:1"
           d="m 183.32125,-35.808674 5.88082,0 5.16869,14.403415 q 1.17157,3.078241 1.56209,5.788932 l 0.18378,0 q 0.20675,-1.263458 0.75807,-3.05527 0.55133,-1.814784 5.83488,-17.137077 l 5.83487,0 -10.86573,28.7838567 q -2.96338,7.92532355 -9.87794,7.92532355 -1.79181,0 -3.49174,-0.39052319 l 0,-4.27278316 q 1.21752,0.2756635 2.77961,0.2756635 3.90523,0 5.4903,-4.5254747 l 0.94185,-2.3890827 -10.19955,-25.40698 z"
           inkscape:connector-curvature="0" /></g></g></g></svg>