<?xml version="1.0" encoding="UTF-8" standalone="no"?>
<!-- Created with Inkscape (http://www.inkscape.org/) -->

<svg
   xmlns:dc="http://purl.org/dc/elements/1.1/"
   xmlns:cc="http://creativecommons.org/ns#"
   xmlns:rdf="http://www.w3.org/1999/02/22-rdf-syntax-ns#"
   xmlns:svg="http://www.w3.org/2000/svg"
   xmlns="http://www.w3.org/2000/svg"
   xmlns:sodipodi="http://sodipodi.sourceforge.net/DTD/sodipodi-0.dtd"
   xmlns:inkscape="http://www.inkscape.org/namespaces/inkscape"
   id="svg2"
   version="1.1"
   inkscape:version="0.91 r13725"
   width="133.32823"
   height="129.66934"
   xml:space="preserve"
   sodipodi:docname="midonet_logo_squared.svg"><metadata
     id="metadata8"><rdf:RDF><cc:Work
         rdf:about=""><dc:format>image/svg+xml</dc:format><dc:type
           rdf:resource="http://purl.org/dc/dcmitype/StillImage" /><dc:title></dc:title></cc:Work></rdf:RDF></metadata><defs
     id="defs6"><clipPath
       clipPathUnits="userSpaceOnUse"
       id="clipPath16"><path
         d="m 0,0 314.103,0 0,125.641 L 0,125.641 0,0 Z"
         id="path18"
         inkscape:connector-curvature="0" /></clipPath></defs><sodipodi:namedview
     pagecolor="#ffffff"
     bordercolor="#666666"
     borderopacity="1"
     objecttolerance="10"
     gridtolerance="10"
     guidetolerance="10"
     inkscape:pageopacity="0"
     inkscape:pageshadow="2"
     inkscape:window-width="2560"
     inkscape:window-height="1456"
     id="namedview4"
     showgrid="false"
     inkscape:zoom="4.2502608"
     inkscape:cx="184.72291"
     inkscape:cy="67.567393"
     inkscape:window-x="0"
     inkscape:window-y="64"
     inkscape:window-maximized="1"
     inkscape:current-layer="g10"
     fit-margin-top="5"
     fit-margin-left="5"
     fit-margin-right="5"
     fit-margin-bottom="5" /><g
     id="g10"
     inkscape:groupmode="layer"
     inkscape:label="midonet-logo"
     transform="matrix(1.25,0,0,-1.25,-3.6303623,154.71102)"><g
       id="g4332"><g
         transform="translate(-13.637708,25.221982)"
         id="g4323"><path
           inkscape:connector-curvature="0"
           id="path22"
           style="fill:#bed13d;fill-opacity:1;fill-rule:nonzero;stroke:none"
           d="m 32.255691,60.936163 c 0,3.426 2.778,6.205 6.204,6.205 3.427,0 6.204,-2.779 6.204,-6.205 0,-3.429 -2.777,-6.206 -6.204,-6.206 -3.426,0 -6.204,2.777 -6.204,6.206" /><path
           inkscape:connector-curvature="0"
           id="path26"
           style="fill:#bcbec0;fill-opacity:1;fill-rule:nonzero;stroke:none"
           d="m 95.083891,60.936163 c 0,3.426 2.778,6.205 6.202999,6.205 3.428,0 6.204,-2.779 6.204,-6.205 0,-3.429 -2.776,-6.206 -6.204,-6.206 -3.424999,0 -6.202999,2.777 -6.202999,6.206" /><path
           inkscape:connector-curvature="0"
           id="path30"
           style="fill:#d1d3d4;fill-opacity:1;fill-rule:nonzero;stroke:none"
           d="m 50.247891,93.032363 c 2.922,1.786 6.741,0.864 8.53,-2.058 1.786,-2.923 0.865,-6.741 -2.057,-8.53 -2.924,-1.788 -6.742,-0.866 -8.531,2.058 -1.786,2.922 -0.866,6.742 2.058,8.53" /><path
           inkscape:connector-curvature="0"
           id="path34"
           style="fill:#939598;fill-opacity:1;fill-rule:nonzero;stroke:none"
           d="m 83.024291,39.429263 c 2.922,1.788 6.742,0.865 8.53,-2.057 1.786,-2.922 0.866,-6.742 -2.057,-8.53 -2.924,-1.788 -6.742,-0.865 -8.53,2.058 -1.786,2.922 -0.867,6.741 2.057,8.529" /><path
           inkscape:connector-curvature="0"
           id="path38"
           style="fill:#6d6f71;fill-opacity:1;fill-rule:nonzero;stroke:none"
           d="m 88.265491,93.753063 c 2.987,-1.673 4.052,-5.457 2.379,-8.444 -1.676,-2.99 -5.457,-4.054 -8.446,-2.379 -2.99,1.676 -4.055,5.456 -2.377,8.447 1.673,2.987 5.455,4.052 8.444,2.376" /><path
           inkscape:connector-curvature="0"
           id="path42"
           style="fill:#a7a9ac;fill-opacity:1;fill-rule:nonzero;stroke:none"
           d="m 57.547691,38.945863 c 2.987,-1.675 4.054,-5.455 2.379,-8.446 -1.676,-2.988 -5.457,-4.052 -8.445,-2.377 -2.99,1.676 -4.054,5.455 -2.379,8.446 1.674,2.988 5.456,4.053 8.445,2.377" /><path
           inkscape:connector-curvature="0"
           id="path46"
           style="fill:#21bde4;fill-opacity:1;fill-rule:nonzero;stroke:none"
           d="m 51.979391,71.078163 17.729,10.424 17.892,-10.141 0.167,-20.567 -17.732,-10.427 -17.892,10.143 -0.164,20.568 z" /></g><g
         transform="matrix(0.59314056,0,0,0.59314056,-68.195959,-3.9539133)"
         id="g4314"><path
           inkscape:connector-curvature="0"
           id="path50"
           style="fill:#bed13d;fill-opacity:1;fill-rule:nonzero;stroke:none"
           d="m 147.67759,47.636363 -5.334,0 0,15.417 c 0,1.912 -0.361,3.34 -1.085,4.282 -0.723,0.941 -1.853,1.414 -3.391,1.414 -2.047,0 -3.55,-0.667 -4.508,-2.001 -0.956,-1.334 -1.436,-3.553 -1.436,-6.657 l 0,-12.455 -5.309,0 0,25 4.158,0 0.744,-3.277 0.273,0 c 0.692,1.189 1.699,2.108 3.016,2.757 1.319,0.648 2.769,0.972 4.351,0.972 3.843,0 6.389,-1.312 7.639,-3.933 l 0.361,0 c 0.741,1.236 1.78,2.199 3.121,2.894 1.341,0.692 2.877,1.039 4.61,1.039 2.984,0 5.157,-0.754 6.52,-2.261 1.365,-1.506 2.046,-3.805 2.046,-6.895 l 0,-16.296 -5.311,0 0,15.417 c 0,1.912 -0.365,3.34 -1.096,4.282 -0.73,0.941 -1.864,1.414 -3.401,1.414 -2.065,0 -3.575,-0.644 -4.532,-1.934 -0.957,-1.287 -1.436,-3.266 -1.436,-5.932 l 0,-13.247 z" /><path
           d="m 173.86309,47.636763 -5.31,0 0,25 5.31,0 0,-25 z m -5.628,31.622 c 0,0.949 0.26,1.68 0.779,2.192 0.522,0.512 1.264,0.767 2.229,0.767 0.934,0 1.66,-0.255 2.18,-0.767 0.52,-0.512 0.78,-1.243 0.78,-2.192 0,-0.904 -0.26,-1.617 -0.78,-2.137 -0.52,-0.519 -1.246,-0.779 -2.18,-0.779 -0.965,0 -1.707,0.26 -2.229,0.779 -0.519,0.52 -0.779,1.233 -0.779,2.137"
           style="fill:#bed13d;fill-opacity:1;fill-rule:nonzero;stroke:none"
           id="path52"
           inkscape:connector-curvature="0" /><path
           inkscape:connector-curvature="0"
           id="path56"
           style="fill:#bed13d;fill-opacity:1;fill-rule:nonzero;stroke:none"
           d="m 188.99839,51.481063 c 2.187,0 3.773,0.61 4.771,1.839 0.994,1.228 1.505,3.224 1.535,5.978 l 0,0.749 c 0,3.148 -0.512,5.387 -1.535,6.712 -1.026,1.326 -2.629,1.99 -4.817,1.99 -1.867,0 -3.308,-0.758 -4.314,-2.271 -1.011,-1.516 -1.515,-3.676 -1.515,-6.477 0,-2.774 0.488,-4.885 1.469,-6.339 0.978,-1.454 2.447,-2.181 4.406,-2.181 m -1.424,-4.296 c -3.119,0 -5.553,1.131 -7.301,3.391 -1.748,2.26 -2.621,5.43 -2.621,9.515 0,4.1 0.886,7.291 2.657,9.573 1.769,2.283 4.222,3.424 7.358,3.424 3.282,0 5.784,-1.214 7.503,-3.638 l 0.269,0 c -0.254,1.792 -0.381,3.209 -0.381,4.248 l 0,9.109 5.333,0 0,-35.171 -4.161,0 -0.926,3.279 -0.246,0 c -1.705,-2.487 -4.2,-3.73 -7.484,-3.73" /><path
           inkscape:connector-curvature="0"
           id="path60"
           style="fill:#bed13d;fill-opacity:1;fill-rule:nonzero;stroke:none"
           d="m 209.64689,60.182263 c 0,-5.771 2.133,-8.657 6.396,-8.657 4.218,0 6.329,2.886 6.329,8.657 0,5.709 -2.124,8.567 -6.373,8.567 -2.233,0 -3.847,-0.738 -4.848,-2.216 -1.004,-1.477 -1.504,-3.593 -1.504,-6.351 m 18.193,0 c 0,-4.085 -1.047,-7.271 -3.14,-9.563 -2.096,-2.29 -5.011,-3.434 -8.746,-3.434 -2.337,0 -4.403,0.527 -6.195,1.581 -1.793,1.054 -3.173,2.569 -4.134,4.543 -0.965,1.974 -1.448,4.268 -1.448,6.873 0,4.052 1.039,7.218 3.118,9.493 2.081,2.275 5.01,3.413 8.792,3.413 3.618,0 6.481,-1.165 8.59,-3.492 2.109,-2.329 3.163,-5.467 3.163,-9.414" /><path
           inkscape:connector-curvature="0"
           id="path64"
           style="fill:#939598;fill-opacity:1;fill-rule:nonzero;stroke:none"
           d="m 248.76009,47.636363 0,16.027 c 0,2.017 -0.46,3.526 -1.377,4.52 -0.92,0.995 -2.358,1.492 -4.317,1.492 -2.591,0 -4.492,-0.702 -5.697,-2.102 -1.206,-1.401 -1.806,-3.715 -1.806,-6.941 l 0,-12.996 -3.753,0 0,24.772 3.052,0 0.61,-3.389 0.18,0 c 0.767,1.219 1.845,2.166 3.231,2.837 1.388,0.67 2.933,1.006 4.636,1.006 2.98,0 5.226,-0.719 6.733,-2.158 1.506,-1.44 2.261,-3.742 2.261,-6.906 l 0,-16.162 -3.753,0 z" /><path
           inkscape:connector-curvature="0"
           id="path68"
           style="fill:#939598;fill-opacity:1;fill-rule:nonzero;stroke:none"
           d="m 267.35189,69.718863 c -1.989,0 -3.573,-0.646 -4.758,-1.942 -1.181,-1.296 -1.881,-3.089 -2.092,-5.38 l 12.953,0 c 0,2.365 -0.528,4.178 -1.582,5.436 -1.055,1.257 -2.562,1.886 -4.521,1.886 m 1.019,-22.534 c -3.664,0 -6.551,1.117 -8.668,3.344 -2.119,2.232 -3.177,5.328 -3.177,9.291 0,3.993 0.982,7.166 2.948,9.516 1.969,2.35 4.608,3.527 7.924,3.527 3.103,0 5.558,-1.021 7.368,-3.064 1.81,-2.042 2.711,-4.735 2.711,-8.08 l 0,-2.373 -17.063,0 c 0.076,-2.908 0.808,-5.117 2.204,-6.622 1.392,-1.508 3.355,-2.26 5.886,-2.26 2.667,0 5.304,0.555 7.911,1.672 l 0,-3.344 c -1.326,-0.574 -2.582,-0.985 -3.761,-1.233 -1.185,-0.25 -2.613,-0.374 -4.283,-0.374" /><path
           inkscape:connector-curvature="0"
           id="path72"
           style="fill:#939598;fill-opacity:1;fill-rule:nonzero;stroke:none"
           d="m 289.56289,50.281863 c 0.662,0 1.303,0.047 1.921,0.146 0.616,0.097 1.107,0.2 1.47,0.304 l 0,-2.867 c -0.409,-0.196 -1.007,-0.359 -1.797,-0.487 -0.793,-0.127 -1.503,-0.193 -2.139,-0.193 -4.789,0 -7.185,2.523 -7.185,7.571 l 0,14.737 -3.548,0 0,1.809 3.548,1.561 1.583,5.288 2.168,0 0,-5.743 7.188,0 0,-2.915 -7.188,0 0,-14.577 c 0,-1.494 0.355,-2.639 1.061,-3.435 0.71,-0.8 1.682,-1.199 2.918,-1.199" /></g></g></g></svg>