<?xml version="1.0" encoding="UTF-8" standalone="no"?>
<!-- Created with Inkscape (http://www.inkscape.org/) -->

<svg
   xmlns:dc="http://purl.org/dc/elements/1.1/"
   xmlns:cc="http://creativecommons.org/ns#"
   xmlns:rdf="http://www.w3.org/1999/02/22-rdf-syntax-ns#"
   xmlns:svg="http://www.w3.org/2000/svg"
   xmlns="http://www.w3.org/2000/svg"
   xmlns:sodipodi="http://sodipodi.sourceforge.net/DTD/sodipodi-0.dtd"
   xmlns:inkscape="http://www.inkscape.org/namespaces/inkscape"
   width="142.96205mm"
   height="49.819122mm"
   viewBox="0 0 506.55845 176.52445"
   id="svg2"
   version="1.1"
   inkscape:version="0.91 r13725"
   sodipodi:docname="ost_israel_logo.svg">
  <defs
     id="defs4" />
  <sodipodi:namedview
     id="base"
     pagecolor="#ffffff"
     bordercolor="#666666"
     borderopacity="1.0"
     inkscape:pageopacity="0.0"
     inkscape:pageshadow="2"
     inkscape:zoom="2.8"
     inkscape:cx="262.05213"
     inkscape:cy="0.84617694"
     inkscape:document-units="px"
     inkscape:current-layer="layer1"
     showgrid="false"
     fit-margin-top="5"
     fit-margin-left="5"
     fit-margin-right="5"
     fit-margin-bottom="5"
     inkscape:window-width="2560"
     inkscape:window-height="1456"
     inkscape:window-x="0"
     inkscape:window-y="64"
     inkscape:window-maximized="1" />
  <metadata
     id="metadata7">
    <rdf:RDF>
      <cc:Work
         rdf:about="">
        <dc:format>image/svg+xml</dc:format>
        <dc:type
           rdf:resource="http://purl.org/dc/dcmitype/StillImage" />
        <dc:title></dc:title>
      </cc:Work>
    </rdf:RDF>
  </metadata>
  <g
     inkscape:label="Layer 1"
     inkscape:groupmode="layer"
     id="layer1"
     transform="translate(-89.578305,-179.98286)">
    <path
       inkscape:connector-curvature="0"
       id="path4151"
       d="m 293.66668,338.12411 c -0.36667,-0.36666 -0.66667,-2.6278 -0.66667,-5.02475 0,-3.72849 0.36116,-4.4954 2.5,-5.30858 l 2.5,-0.9505 0,-19.5495 0,-19.5495 -2.55495,-0.97139 c -2.3148,-0.88009 -2.52628,-1.41822 -2.25,-5.72525 l 0.30495,-4.75386 11.41976,-0.28434 c 12.3078,-0.30645 13.03633,-0.0303 13.06493,4.95255 0.0224,3.90617 -0.96311,5.83179 -2.98469,5.83179 -0.98231,0 -2.05917,0.7118 -2.39301,1.58179 -0.33385,0.86998 -0.60699,9.38318 -0.60699,18.91821 0,9.53503 0.27314,18.04823 0.60699,18.91821 0.33384,0.86999 1.4107,1.58179 2.39301,1.58179 1.96193,0 3,1.90313 3,5.5 0,5.3215 -0.40375,5.5 -12.44032,5.5 -6.17449,0 -11.52635,-0.3 -11.89301,-0.66667 z m 52.56348,-0.88373 c -5.86311,-1.57849 -11.34496,-4.14645 -12.46484,-5.83913 -1.08441,-1.63907 -0.92456,-26.39401 0.17482,-27.07347 0.51707,-0.31957 2.49038,0.78011 4.38513,2.44372 11.89862,10.44713 31.30826,11.43001 36.26919,1.83664 2.10632,-4.07319 1.4139,-10.53448 -1.56,-14.55689 -1.23455,-1.66982 -5.38271,-4.99904 -9.21814,-7.39826 -16.11312,-10.07943 -19.12853,-12.36155 -22.85484,-17.29702 -5.19112,-6.87559 -7.04163,-12.31325 -7.67923,-22.56519 -1.24781,-20.06362 7.82438,-34.57679 24.64926,-39.43246 9.8639,-2.84673 31.05877,-1.31028 35.7612,2.59239 0.95335,0.79121 1.3073,4.59412 1.3073,14.04585 0,7.12849 -0.3375,12.80831 -0.75,12.62182 -0.4125,-0.18648 -3.12533,-1.58806 -6.02851,-3.11462 -13.48475,-7.0906 -27.78661,-5.00839 -30.92222,4.50197 -2.59036,7.85664 1.78634,13.77236 16.70073,22.57337 16.25907,9.59451 22.75063,17.88881 25.20565,32.20538 3.04584,17.76198 -4.04339,35.11616 -17.15952,42.0059 -7.62582,4.00574 -25.4967,5.22821 -35.81598,2.45 z m 97.13656,-0.36766 c -4.71386,-2.87438 -6.36719,-5.87664 -6.36297,-11.55445 0.005,-6.22399 2.76917,-11.11683 7.36657,-13.03775 1.82958,-0.76444 6.87769,-1.97487 11.21802,-2.68982 8.69502,-1.43228 10.2062,-3.00539 6.47315,-6.73844 -2.63933,-2.63933 -8.34215,-2.70662 -14.9996,-0.17699 -2.72776,1.03647 -5.20759,1.63647 -5.51072,1.33333 -0.30314,-0.30313 -0.55116,-2.29912 -0.55116,-4.43551 0,-3.53621 0.33611,-4.02841 3.75,-5.49154 2.38132,-1.0206 6.85233,-1.64069 12.25,-1.69898 9.69379,-0.10468 13.3737,1.31899 17.17116,6.64312 2.22535,3.12 2.32884,4.04276 2.32884,20.76509 l 0,17.5 -5.82995,0.30229 c -5.17192,0.26817 -5.89052,0.0707 -6.36663,-1.75 -0.69062,-2.64093 -1.42988,-2.58482 -5.89856,0.44771 -4.51448,3.06361 -10.58317,3.29845 -15.03815,0.58194 z m 15.94903,-9.24528 c 3.11327,-1.65814 4.61582,-3.92778 4.65246,-7.02764 0.0414,-3.50558 -1.1886,-4.15302 -6.40417,-3.37089 -5.59652,0.83925 -7.81403,2.55952 -7.81403,6.06187 0,4.71536 4.78321,6.88385 9.56574,4.33666 z m 38.50358,9.64877 c -18.93575,-6.09061 -17.5245,-39.03014 1.90335,-44.4253 15.53745,-4.31479 28.12418,5.64265 27.10114,21.43987 l -0.32381,5 -13.48063,0.28063 c -7.41435,0.15435 -13.89374,0.69374 -14.39865,1.19865 -1.5409,1.5409 2.0314,5.7508 5.98778,7.05653 3.50524,1.15683 11.02437,0.86999 16.1415,-0.61578 2.09445,-0.60813 2.25,-0.34524 2.25,3.80282 0,3.88826 -0.35045,4.61713 -2.75,5.7196 -4.31092,1.98064 -17.00558,2.28794 -22.43068,0.54298 z m 15.98591,-29.61941 c 0.21918,-1.89149 -0.45308,-3.23046 -2.38486,-4.75 -2.95961,-2.32803 -5.53816,-2.65853 -8.47576,-1.08638 -2.32465,1.24412 -5.27235,6.63105 -4.40044,8.04182 0.3571,0.57781 3.7029,0.88729 7.79086,0.72063 6.90948,-0.28167 7.17585,-0.38601 7.4702,-2.92607 z m -108.33915,28.90619 c -0.27941,-0.72814 -0.38608,-10.76226 -0.23705,-22.29805 l 0.27097,-20.97416 6.5,0 c 6.00261,0 6.52473,0.17427 6.82314,2.27735 l 0.32313,2.27736 3.00394,-2.52765 c 3.23734,-2.72405 6.60496,-3.91108 9.5207,-3.3559 1.47483,0.28082 1.88718,1.46007 2.12899,6.08856 l 0.29991,5.74028 -4.11565,0 c -8.93177,0 -10.33827,2.56095 -10.98416,20 l -0.5,13.5 -6.26294,0.29805 c -4.49481,0.21391 -6.40637,-0.0757 -6.77098,-1.02584 z m 130.0066,0.0172 c -0.27579,-0.71869 -0.38246,-15.70281 -0.23706,-33.29805 l 0.26438,-31.99136 6.5,0 6.5,0 0,33 0,33 -6.26294,0.29805 c -4.45601,0.21206 -6.40762,-0.0789 -6.76438,-1.00865 z M 178.47248,284.57964 c -0.2759,-0.71899 -0.38258,-15.47812 -0.23705,-32.79806 l 0.26458,-31.4908 6.5,0 c 5.97939,0 6.52559,0.18021 6.81955,2.25 0.37929,2.67061 1.42999,2.85962 3.30801,0.5951 1.92504,-2.32124 7.17683,-4.3451 11.27522,-4.3451 7.0156,0 12.22661,3.44679 15.82612,10.46808 4.12203,8.04054 2.03749,24.06819 -4.01709,30.88662 -4.71076,5.30506 -15.25628,7.13496 -20.98598,3.64156 -1.80079,-1.09794 -3.69901,-1.99626 -4.21826,-1.99626 -0.52258,0 -1.06989,5.24613 -1.22583,11.75 l -0.28174,11.75 -6.26294,0.29805 c -4.45725,0.21212 -6.40758,-0.0788 -6.76459,-1.00919 z m 26.58292,-30.8185 c 3.10639,-1.66249 4.94461,-6.41522 4.94461,-12.78434 0,-5.05574 -0.38233,-6.29562 -2.63636,-8.54966 -5.31451,-5.3145 -13.55056,-2.17401 -15.37758,5.86364 -1.0182,4.47942 -0.39992,10.22716 1.35379,12.58523 2.68867,3.61523 7.93652,4.90759 11.71554,2.88513 z m -77.72293,10.17857 c -16.78244,-5.79958 -24.15577,-23.82446 -17.74078,-43.36917 1.98284,-6.04117 9.07154,-13.93115 15.03472,-16.73417 11.20544,-5.26718 25.39357,-3.4295 34.12388,4.4198 7.27528,6.5411 9.65373,12.55681 9.70725,24.55217 0.0393,8.79789 -0.20813,10.02686 -3.2718,16.25326 -6.88103,13.98456 -22.5816,20.15562 -37.85327,14.87811 z m 19.49203,-12.86383 c 5.06794,-3.77733 6.67551,-7.93988 6.67551,-17.2851 0,-12.58838 -4.10354,-19.25002 -12.71916,-20.64814 -8.08111,-1.31138 -14.80612,3.48739 -17.40224,12.41774 -3.31327,11.39726 0.7579,23.59129 9.1214,27.32056 3.19683,1.42545 11.37243,0.39523 14.32449,-1.80506 z m 97.99483,13.20033 c -18.93575,-6.09061 -17.5245,-39.03014 1.90335,-44.4253 15.53745,-4.31479 28.12418,5.64265 27.10114,21.43987 l -0.32381,5 -13.48063,0.28063 c -7.41435,0.15435 -13.89374,0.69374 -14.39865,1.19865 -1.5409,1.5409 2.0314,5.7508 5.98778,7.05653 3.50524,1.15683 11.02437,0.86999 16.1415,-0.61578 2.09445,-0.60813 2.25,-0.34524 2.25,3.80282 0,3.88826 -0.35045,4.61713 -2.75,5.7196 -4.31092,1.98064 -17.00558,2.28794 -22.43068,0.54298 z m 15.98591,-29.61941 c 0.21918,-1.89149 -0.45308,-3.23046 -2.38486,-4.75 -2.95961,-2.32803 -5.53816,-2.65853 -8.47576,-1.08638 -2.32465,1.24412 -5.27235,6.63105 -4.40044,8.04182 0.3571,0.57781 3.7029,0.88729 7.79086,0.72063 6.90948,-0.28168 7.17585,-0.38601 7.4702,-2.92607 z m 157.52025,29.67485 c -5.73296,-2.49371 -6.76813,-5.38949 -7.32548,-20.49217 l -0.5,-13.5487 -3.25,-0.31336 c -3.1792,-0.30653 -3.25,-0.41952 -3.25,-5.18664 0,-4.76712 0.0708,-4.88011 3.25,-5.18664 3.03967,-0.29308 3.26965,-0.58337 3.55369,-4.48548 0.36105,-4.9601 1.07363,-5.64529 7.99305,-7.68583 6.08399,-1.79417 6.0111,-1.8663 6.42588,6.35795 l 0.27738,5.5 4.5,0.5 4.5,0.5 0,4.5 0,4.5 -4.5,0.5 -4.5,0.5 -0.2846,10.2154 c -0.25513,9.15757 -0.0739,10.42609 1.75,12.25 1.14187,1.14187 3.35093,2.0346 5.0346,2.0346 2.88539,0 3,0.17058 3,4.46482 0,3.39077 -0.4653,4.71383 -1.93426,5.5 -2.71947,1.45541 -10.96486,1.21827 -14.74026,-0.42395 z m 27.97311,-0.10831 c -4.67942,-2.39027 -6.70268,-6.05279 -6.71587,-12.15706 -0.02,-9.27497 5.08537,-13.57035 18.36092,-15.44775 9.42536,-1.33292 10.94257,-2.80855 6.66806,-6.48533 -3.16773,-2.72476 -7.27296,-2.9542 -13.1117,-0.7328 -7.86054,2.99061 -7.5,3.08053 -7.5,-1.87054 0,-2.47181 0.5625,-4.94036 1.25,-5.48568 4.69519,-3.72418 22.82111,-4.08403 27.55842,-0.54712 6.35564,4.74518 6.66414,5.86224 7.0047,25.36352 l 0.31313,17.9302 -6.15675,0 c -5.31574,0 -6.22818,-0.2732 -6.67975,-2 -0.65178,-2.49242 -0.79762,-2.48662 -4.54374,0.18086 -4.01972,2.86229 -12.09176,3.4766 -16.44742,1.2517 z m 17.84568,-11.42298 c 2.16223,-2.16223 2.90253,-3.75469 2.67308,-5.75 -0.29997,-2.60842 -0.56359,-2.74338 -4.81269,-2.46384 -5.62354,0.36996 -9.00466,2.49366 -9.00466,5.65588 0,5.85823 6.37967,7.32256 11.14427,2.55796 z m 36.2387,10.64975 c -8.71398,-4.16216 -13.05795,-12.27893 -12.11817,-22.64298 0.82895,-9.1418 4.83362,-15.45207 12.2352,-19.27934 4.67629,-2.41805 17.48996,-3.5111 21.75,-1.85535 2.54871,0.9906 2.75,1.48176 2.75,6.71022 0,5.3818 -0.10353,5.61061 -2.25,4.97263 -5.44724,-1.61904 -9.49606,-1.69745 -12.95798,-0.25097 -4.77609,1.99558 -6.95869,5.50422 -6.95869,11.18646 0,5.67827 2.18222,9.19072 6.94687,11.18152 3.41651,1.42751 5.05566,1.38921 12.4698,-0.29134 2.71611,-0.61565 2.75,-0.56179 2.75,4.3708 0,6.62147 -1.27733,7.52097 -11.32309,7.97384 -7.07186,0.31881 -8.86844,0.0383 -13.29394,-2.07549 z m -216.91689,0.11288 c -0.27941,-0.72814 -0.38608,-10.76226 -0.23705,-22.29805 l 0.27097,-20.97416 6.5,0 c 5.97939,0 6.52559,0.18021 6.81955,2.25 0.40229,2.83254 0.56941,2.81784 4.81931,-0.42371 5.04601,-3.84878 12.60983,-4.34782 17.36114,-1.14543 6.33605,4.27051 7.05632,7.07441 6.76093,26.31914 l -0.26093,17 -6,0 -6,0 -0.57969,-14.75426 c -0.5377,-13.68564 -0.74951,-14.93502 -2.92431,-17.25 -3.06846,-3.26622 -6.99632,-3.22269 -10.33353,0.11452 -2.54576,2.54575 -2.61709,2.97208 -2.88637,17.25 l -0.2761,14.63974 -6.26294,0.29805 c -4.49481,0.21391 -6.40637,-0.0757 -6.77098,-1.02584 z m 251.53392,-32.27221 0,-33.59138 6.75,0.29569 6.75,0.29569 0.5,20 0.5,20 2.63807,-3.5 c 1.45094,-1.925 4.27727,-6.0875 6.28073,-9.25 l 3.64266,-5.75 7.41025,0 c 4.07564,0 7.63155,0.35805 7.90201,0.79568 0.27047,0.43762 -2.62241,4.82512 -6.42862,9.75 -3.80621,4.92487 -6.92594,9.67602 -6.93274,10.5581 -0.007,0.88207 3.3451,6.24092 7.44867,11.90854 4.10357,5.66762 7.22701,10.68342 6.94098,11.14622 -0.28602,0.4628 -3.84539,0.84146 -7.9097,0.84146 l -7.38966,0 -6.15414,-9.5 c -3.38478,-5.225 -6.54099,-9.5 -7.0138,-9.5 -0.47281,0 -0.98904,4.1625 -1.14718,9.25 l -0.28753,9.25 -6.75,0.29569 -6.75,0.29569 0,-33.59138 z"
       style="fill:#6f6f6f" />
    <path
       inkscape:connector-curvature="0"
       id="path4149"
       d="m 350.04268,337.71792 c -3.00153,-0.5337 -7.83903,-2.06074 -10.75,-3.39343 l -5.29267,-2.42306 0,-13.55533 c 0,-7.45542 0.21587,-13.55532 0.47971,-13.55532 0.26385,0 2.78902,1.74785 5.6115,3.8841 12.6193,9.55119 30.70723,9.38246 35.31582,-0.32943 4.23498,-8.92454 -0.19231,-15.76875 -16.39389,-25.34358 -12.15686,-7.18448 -17.27116,-11.95848 -21.06365,-19.66212 -7.20153,-14.62839 -5.31121,-34.72501 4.33929,-46.13226 3.64765,-4.31166 13.01863,-9.03371 20.71122,-10.4364 10.39864,-1.89613 28.83827,0.69399 31.23469,4.38738 1.22464,1.88743 0.91963,24.63231 -0.33032,24.63231 -0.6026,0 -2.2901,-0.84676 -3.75,-1.88168 -10.50636,-7.44796 -28.35063,-6.44084 -32.63376,1.84183 -4.57552,8.84808 -0.12534,15.80516 16.25132,25.40614 11.5465,6.76925 17.52307,12.45623 21.42935,20.39099 2.90193,5.89468 3.30405,7.75159 3.63919,16.80526 0.74622,20.1586 -7.0051,33.39143 -22.25412,37.99156 -6.47627,1.95368 -19.49177,2.62695 -26.54368,1.37304 z m 70.29024,-72.97329 c -1.74189,-0.53244 -4.32939,-2.34939 -5.75,-4.03768 -2.47187,-2.93766 -2.58291,-3.60016 -2.58291,-15.41111 0,-13.62923 -0.36599,-15.50506 -3.0252,-15.50506 -3.83381,0 -4.9748,-1.14677 -4.9748,-5 0,-3.85323 1.14099,-5 4.9748,-5 2.1368,0 3.0252,-1.91201 3.0252,-6.51083 0,-3.19931 0.2446,-3.41836 5.5342,-4.95609 3.04382,-0.88486 5.96882,-1.34023 6.5,-1.01194 0.53119,0.32829 0.9658,3.27034 0.9658,6.53788 l 0,5.94098 3.8,0 c 4.45592,0 6.2,1.40652 6.2,5 0,3.59348 -1.74408,5 -6.2,5 l -3.8,0 0,10.80887 c 0,12.23013 0.70582,13.92235 6,14.38516 3.22592,0.28201 3.52354,0.58676 3.80056,3.89156 0.18267,2.17915 -0.24915,4.04182 -1.10088,4.74869 -1.96876,1.63393 -9.59442,2.27263 -13.36677,1.11957 z m 27.70172,-0.26029 c -2.00282,-0.68982 -4.46719,-2.67072 -5.83907,-4.69356 -1.97019,-2.90501 -2.29976,-4.42049 -1.9387,-8.91476 0.37305,-4.64348 0.93595,-5.87383 3.95186,-8.63771 3.34649,-3.06682 10.29514,-5.42523 16.0905,-5.46118 4.48247,-0.0278 6.70078,-1.16928 6.70078,-3.44799 0,-5.28989 -8.03972,-7.19973 -17,-4.03836 -5.80109,2.04674 -6,1.98121 -6,-1.97695 0,-4.38656 2.30558,-5.98637 10.81915,-7.50726 12.32964,-2.20261 21.69649,1.97859 24.13968,10.77554 0.56651,2.03977 1.03253,10.3376 1.03559,18.43962 0.006,14.6509 -0.007,14.73417 -2.35605,15.32368 -4.14289,1.0398 -8.86647,0.0729 -10.03752,-2.05463 -0.60547,-1.1 -1.21059,-2.18474 -1.34472,-2.41054 -0.13413,-0.22579 -1.0506,0.31955 -2.0366,1.21187 -2.24455,2.03129 -8.57256,4.71713 -10.93741,4.64223 -0.98017,-0.0311 -3.34154,-0.59355 -5.24749,-1.25 z m 15.66634,-10.19666 c 2.40834,-1.68687 4.81422,-7.8543 3.74119,-9.59049 -1.08432,-1.75447 -11.0363,-0.58368 -13.42666,1.57956 -6.0081,5.43726 2.87279,12.78271 9.68547,8.01093 z m 41.79903,10.6265 c -10.95139,-2.87955 -16.51542,-10.24863 -16.47804,-21.82374 0.0454,-14.05561 7.63056,-22.2267 22.15426,-23.8656 3.34943,-0.37796 6.8072,-0.10466 9.32378,0.73696 3.87513,1.29594 4,1.47805 4,5.83334 l 0,4.49564 -6.61754,-0.34418 c -7.76365,-0.40378 -12.04773,1.3293 -14.36553,5.81145 -3.31907,6.41836 -0.58007,15.90953 5.23353,18.13522 1.51225,0.57895 5.67454,0.90524 9.24954,0.72508 l 6.5,-0.32757 0.30677,3.68975 c 0.24718,2.97293 -0.15477,3.99216 -2.069,5.24641 -2.7868,1.82598 -12.9331,2.81911 -17.23777,1.68724 z m 30.7438,-1.2796 c -1.94746,-1.94746 -1.7788,-63.1549 0.17851,-64.77932 0.79588,-0.66053 3.54853,-1.04477 6.25,-0.87244 l 4.82769,0.30796 0.5,19.91799 c 0.29998,11.95005 0.90004,20.04522 1.5,20.23601 0.55,0.17491 3.25,-3.15422 6,-7.39806 7.11672,-10.98263 7.46737,-11.25594 14.44098,-11.25594 3.26754,0 6.18301,0.3916 6.47882,0.87023 0.2958,0.47863 -2.60264,5.01797 -6.44099,10.08742 -3.83834,5.06946 -6.97881,9.66928 -6.97881,10.22182 0,0.55254 3.41178,5.74142 7.58174,11.53084 4.69331,6.51603 7.22617,10.88178 6.64843,11.45952 -0.51332,0.51332 -3.80447,0.7976 -7.31367,0.63174 l -6.38036,-0.30157 -6.24848,-9.5 c -3.43666,-5.225 -6.81979,-9.5 -7.51807,-9.5 -0.90194,0 -1.41438,2.75102 -1.76959,9.5 l -0.5,9.5 -5.0062,0.2938 c -3.02973,0.17781 -5.49725,-0.19725 -6.25,-0.95 z"
       style="fill:#c53622" />
  </g>
</svg>
