<?xml version="1.0" encoding="UTF-8" standalone="no"?>
<!-- Created with Inkscape (http://www.inkscape.org/) -->

<svg
   xmlns:dc="http://purl.org/dc/elements/1.1/"
   xmlns:cc="http://creativecommons.org/ns#"
   xmlns:rdf="http://www.w3.org/1999/02/22-rdf-syntax-ns#"
   xmlns:svg="http://www.w3.org/2000/svg"
   xmlns="http://www.w3.org/2000/svg"
   xmlns:sodipodi="http://sodipodi.sourceforge.net/DTD/sodipodi-0.dtd"
   xmlns:inkscape="http://www.inkscape.org/namespaces/inkscape"
   id="svg4294"
   version="1.1"
   inkscape:version="0.91 r13725"
   width="200.12485"
   height="198.32555"
   viewBox="0 0 200.12485 198.32555"
   sodipodi:docname="openstackil_icon.svg">
  <metadata
     id="metadata4300">
    <rdf:RDF>
      <cc:Work
         rdf:about="">
        <dc:format>image/svg+xml</dc:format>
        <dc:type
           rdf:resource="http://purl.org/dc/dcmitype/StillImage" />
        <dc:title></dc:title>
      </cc:Work>
    </rdf:RDF>
  </metadata>
  <defs
     id="defs4298" />
  <sodipodi:namedview
     pagecolor="#ffffff"
     bordercolor="#666666"
     borderopacity="1"
     objecttolerance="10"
     gridtolerance="10"
     guidetolerance="10"
     inkscape:pageopacity="0"
     inkscape:pageshadow="2"
     inkscape:window-width="2560"
     inkscape:window-height="1456"
     id="namedview4296"
     showgrid="false"
     fit-margin-top="5"
     fit-margin-left="5"
     fit-margin-right="5"
     fit-margin-bottom="5"
     inkscape:zoom="1.8280255"
     inkscape:cx="409.56823"
     inkscape:cy="126.39295"
     inkscape:window-x="0"
     inkscape:window-y="64"
     inkscape:window-maximized="1"
     inkscape:current-layer="svg4294" />
  <g
     id="g4310"
     transform="translate(-69.035126,-129.05577)">
    <path
       style="fill:#ddd8d7"
       d="m 74.035126,228.21854 0,-94.16277 95.062424,0 95.06243,0 0,94.16277 0,94.16278 -95.06243,0 -95.062424,0 0,-94.16278 z"
       id="path4314"
       inkscape:connector-curvature="0" />
    <path
       style="fill:#d22f11"
       d="m 74.035126,228.21854 0,-94.16277 95.062424,0 95.06243,0 0,94.16277 0,94.16278 -95.06243,0 -95.062424,0 0,-94.16278 z m 89.364674,44.4223 c 0,-3.43642 -0.0567,-3.56526 -1.64934,-3.74852 l -1.64935,-0.18978 -0.1612,-13.64461 -0.16121,-13.6446 1.81056,0 1.81054,0 0,-3.59858 0,-3.59858 -8.39668,0 -8.39668,0 0,3.55875 c 0,3.43641 0.0567,3.56526 1.64935,3.74851 l 1.64935,0.18978 0,13.49467 0,13.49466 -1.64935,0.18978 c -1.59265,0.18326 -1.64935,0.3121 -1.64935,3.74852 l 0,3.55874 8.39668,0 8.39668,0 0,-3.55874 z m 31.18768,-0.33972 0,-3.89846 -7.79692,0 -7.79692,0 0,-17.09324 0,-17.09325 -4.7981,0 -4.79811,0 0,20.99171 0,20.9917 12.59502,0 12.59503,0 0,-3.89846 z m -86.72432,-58.12208 c 3.62497,-1.77353 6.2042,-4.49532 8.27567,-8.73307 1.09391,-2.2379 1.33275,-3.77556 1.35369,-8.71498 0.0222,-5.24426 -0.17126,-6.41699 -1.54038,-9.33625 -3.29717,-7.03026 -9.25972,-10.47721 -17.326734,-10.01657 -9.609128,0.5487 -15.640746,6.00017 -17.44651,15.76845 -1.934862,10.46663 3.591477,20.16065 12.847517,22.53645 3.727754,0.95682 10.257717,0.24703 13.836747,-1.50403 z m -11.966421,-5.96409 c -8.434686,-3.82353 -7.956176,-20.17038 0.674987,-23.05891 7.226534,-2.41845 12.929494,3.82149 12.127154,13.26906 -0.33009,3.88694 -1.80242,7.0261 -4.0879,8.71583 -2.25036,1.66375 -6.309627,2.16406 -8.714241,1.07402 z m 46.156251,6.23578 c 3.83117,-1.85464 5.35783,-4.22148 5.64643,-8.75394 0.38978,-6.12146 -1.63101,-8.59207 -10.23473,-12.51291 -5.27068,-2.40193 -7.0125,-4.34207 -5.96406,-6.64313 1.25556,-2.75567 7.90886,-3.34472 12.31267,-1.09011 0.9378,0.48012 1.82951,0.74853 1.98157,0.59647 0.15207,-0.15207 0.32941,-1.85527 0.39409,-3.7849 0.11758,-3.50785 0.11726,-3.50853 -1.98157,-4.23211 -1.15454,-0.39803 -4.00691,-0.73893 -6.3386,-0.75755 -10.4443,-0.0834 -16.55444,4.71993 -15.69569,12.33876 0.49976,4.43386 2.42754,6.55328 8.73862,9.60734 6.26066,3.02966 7.8978,4.35961 7.8978,6.41583 0,2.47188 -2.07134,3.69465 -6.21054,3.66624 -3.36267,-0.0231 -5.09267,-0.55966 -10.133,-3.14283 -0.2474,-0.12679 -0.44982,1.53677 -0.44982,3.6968 0,3.45609 0.16193,4.01516 1.34947,4.65925 3.8965,2.11335 14.26363,2.07829 18.68736,-0.0632 z m 26.06995,1.39771 c 1.7916,-0.35833 1.87426,-0.50381 1.87426,-3.2987 l 0,-2.92384 -2.05633,0 c -3.46588,0 -3.9413,-1.01803 -3.9413,-8.43953 l 0,-6.55455 2.99881,0 2.99882,0 0,-2.99881 0,-2.99882 -2.99882,0 -2.99881,0 0,-4.156 0,-4.15601 -4.0465,1.15719 c -2.22557,0.63646 -4.11482,1.15719 -4.19834,1.15719 -0.0835,0 -0.15185,1.34947 -0.15185,2.99882 l 0,2.99881 -2.09917,0 -2.09917,0 0,2.99882 0,2.99881 2.09917,0 2.09917,0 0.002,7.94686 c 0.002,6.90972 0.16004,8.20568 1.21134,9.93001 1.91931,3.14804 6.09615,4.38181 11.30647,3.33975 z m 16.67934,-0.26487 c 0.92862,-0.35184 2.29566,-1.20857 3.03786,-1.90384 l 1.34947,-1.26412 0,1.63137 0,1.63135 4.0484,-0.17734 4.0484,-0.17735 0,-9.29632 c 0,-10.56381 -0.2259,-11.78593 -2.69924,-14.60291 -3.0318,-3.45303 -9.53025,-4.29848 -16.64312,-2.16528 l -2.54899,0.76446 0,3.17444 0,3.17444 2.54899,-1.15704 c 4.96335,-2.25294 11.24556,-1.21095 11.24556,1.86524 0,0.84878 -0.69608,1.14346 -3.44864,1.45996 -5.18888,0.59666 -8.04552,1.44745 -10.11511,3.01259 -3.06037,2.31444 -3.71018,7.41131 -1.4769,11.58423 1.41047,2.63548 6.85445,3.88548 10.65332,2.44612 z m -3.6876,-6.53327 c -1.25501,-1.38677 -0.86587,-3.8944 0.73492,-4.73591 0.57337,-0.30141 2.45944,-0.73936 4.19125,-0.97323 l 3.14876,-0.42522 0,2.18272 c 0,4.28793 -5.38549,6.92344 -8.07493,3.95164 z m 40.19654,6.50203 2.66464,-0.67097 0,-3.54278 0,-3.54278 -1.76951,0.91505 c -2.098,1.08492 -5.96417,1.19142 -8.08995,0.22284 -4.68963,-2.13673 -4.92927,-10.59381 -0.37639,-13.28326 2.14247,-1.26559 6.12503,-1.3143 8.46634,-0.10356 l 1.76951,0.91505 0,-3.57859 c 0,-2.02499 -0.29588,-3.76144 -0.68153,-3.99979 -1.25965,-0.7785 -8.59131,-0.98902 -11.07135,-0.3179 -6.42111,1.73762 -10.15495,6.97717 -10.11513,14.19414 0.0192,3.48773 0.30757,4.7145 1.64404,6.99502 3.20994,5.47734 9.9687,7.70887 17.55933,5.79753 z m 16.58884,-6.37626 0.17023,-6.44745 4.11348,6.44745 4.1135,6.44745 5.10633,0 c 4.00065,0 4.97827,-0.16233 4.5149,-0.7497 -1.27872,-1.62092 -8.9658,-12.19029 -9.39359,-12.91574 -0.28945,-0.49087 1.19585,-2.92342 4.09213,-6.70191 2.50057,-3.26225 4.54649,-6.08675 4.54649,-6.27667 0,-0.18992 -2.12846,-0.34531 -4.72992,-0.34531 l -4.72992,0 -3.9507,6.14757 -3.9507,6.14757 -0.016,-12.38091 c -0.012,-9.35104 -0.1994,-12.4461 -0.76564,-12.6473 -0.41233,-0.14651 -2.30159,-0.3299 -4.19834,-0.40753 l -3.44863,-0.14115 0,20.13554 0,20.13554 4.17805,0 4.17805,0 0.17023,-6.44745 z"
       id="path4312"
       inkscape:connector-curvature="0" />
  </g>
</svg>
